<svg id="Layer_1" data-name="Layer 1" xmlns="http://www.w3.org/2000/svg" xmlns:xlink="http://www.w3.org/1999/xlink" viewBox="0 0 1300 1000"><defs><style>.cls-1{fill:none;}.cls-2{opacity:0.2;fill:url(#linear-gradient);}.cls-3{opacity:0.3;fill:url(#linear-gradient-2);}.cls-4{opacity:0.4;fill:url(#linear-gradient-3);}.cls-5{opacity:0.5;fill:url(#linear-gradient-4);}.cls-6{opacity:0.55;fill:url(#linear-gradient-5);}.cls-7{opacity:0.6;fill:url(#linear-gradient-6);}.cls-8{opacity:0.65;fill:url(#linear-gradient-7);}</style><linearGradient id="linear-gradient" x1="-3505.6" y1="3538.95" x2="-2358.76" y2="3538.95" gradientTransform="translate(2170.68 -3766.95) rotate(-23.39)" gradientUnits="userSpaceOnUse"><stop offset="0" stop-color="#ffc347"/><stop offset="1" stop-color="#dece24"/></linearGradient><linearGradient id="linear-gradient-2" x1="-3421.85" y1="3556.44" x2="-2400.08" y2="3556.44" gradientTransform="translate(2170.68 -3766.95) rotate(-23.39)" gradientUnits="userSpaceOnUse"><stop offset="0" stop-color="#ffbd2f"/><stop offset="1" stop-color="#d8c718"/></linearGradient><linearGradient id="linear-gradient-3" x1="-3342.62" y1="3579.12" x2="-2438.9" y2="3579.12" gradientTransform="translate(2170.68 -3766.95) rotate(-23.39)" gradientUnits="userSpaceOnUse"><stop offset="0" stop-color="#ffb718"/><stop offset="1" stop-color="#d2c00c"/></linearGradient><linearGradient id="linear-gradient-4" x1="-3266.82" y1="3609.56" x2="-2472.75" y2="3609.56" gradientTransform="translate(2170.68 -3766.95) rotate(-23.39)" gradientUnits="userSpaceOnUse"><stop offset="0" stop-color="#ffb100"/><stop offset="1" stop-color="#ccb900"/></linearGradient><linearGradient id="linear-gradient-5" x1="-3115.9" y1="3606.69" x2="-2496.73" y2="3606.69" gradientTransform="translate(2170.68 -3766.95) rotate(-23.39)" gradientUnits="userSpaceOnUse"><stop offset="0" stop-color="#ed8c00"/><stop offset="1" stop-color="#c99e00"/></linearGradient><linearGradient id="linear-gradient-6" x1="-2966.3" y1="3604.42" x2="-2520.66" y2="3604.42" gradientTransform="translate(2170.68 -3766.95) rotate(-23.39)" gradientUnits="userSpaceOnUse"><stop offset="0" stop-color="#dc6600"/><stop offset="1" stop-color="#c78200"/></linearGradient><linearGradient id="linear-gradient-7" x1="-2818.65" y1="3588.65" x2="-2544.57" y2="3588.65" gradientTransform="translate(2170.68 -3766.95) rotate(-23.39)" gradientUnits="userSpaceOnUse"><stop offset="0" stop-color="#ca4100"/><stop offset="1" stop-color="#c46700"/></linearGradient></defs><title>news-bg-desk</title><rect class="cls-1" width="1300" height="1000"/><path class="cls-2" d="M1259.53,151C1142.7,34.59,1003.61,256.64,979.29,291s-107.52,145.34-294-53.42-469.71-11.83-486.83,139c-20.54,181,88.84,280.21,142.09,419.06s125.81,523.22,490.41,491.59C1870.91,1197.05,1376.36,267.49,1259.53,151ZM873.12,1200.8c-352,62.86-374.68-284.8-420.49-404.27S285.17,604.7,302.84,449C317.57,319.15,561,182.22,737.31,319.32c173.66,135,245,46.22,266.34,16.94,32.92-45.19,166.18-206.69,261.31-103.2C1360.59,337.29,1702.74,1052.64,873.12,1200.8Z"/><path class="cls-3" d="M1265,233.06c-95.13-103.49-228.39,58-261.31,103.2C982.31,365.54,911,454.34,737.31,319.32,561,182.22,317.57,319.15,302.84,449c-17.67,155.73,104,228.09,149.79,347.56s68.52,467.13,420.49,404.27C1702.74,1052.64,1360.59,337.29,1265,233.06ZM915.32,1114.32c-339.48,100.8-312.19-216.85-350.58-316.95S392.45,651.78,407.26,521.3C419.6,412.53,622.39,326.12,789.38,401.05c160,71.79,220.46,4.78,238.62-19.54,41.72-55.87,169-157,242.39-66.42C1344.81,407.1,1535.77,930.11,915.32,1114.32Z"/><path class="cls-4" d="M1270.39,315.09C1197,224.55,1069.72,325.64,1028,381.51c-18.16,24.32-78.65,91.33-238.62,19.54-167-74.93-369.78,11.48-382.12,120.25-14.81,130.48,119.09,176,157.48,276.07s11.1,417.75,350.58,316.95C1535.77,930.11,1344.81,407.1,1270.39,315.09ZM957.52,1027.85c-321.46,152.67-249.7-148.91-280.66-229.64S499.74,698.86,511.68,593.63c9.95-87.72,171.66-121.89,329.76-110.85,145.84,10.18,196-36.6,210.91-56,50.84-66.29,171.73-107.23,223.46-29.64C1329,476.9,1377.1,828.58,957.52,1027.85Z"/><path class="cls-5" d="M1275.81,397.11c-51.73-77.59-172.62-36.65-223.46,29.64-14.9,19.43-65.07,66.21-210.91,56-158.1-11-319.81,23.13-329.76,110.85C499.74,698.86,645.9,717.48,676.86,798.21s-40.8,382.31,280.66,229.64C1377.1,828.58,1329,476.9,1275.81,397.11ZM1005.6,928.8C782.5,1026,847,809.18,820.35,739.62s-159-72-153.28-152.44C671.75,519.89,797.51,499,913.14,502c111.59,2.9,150.88-35.56,163.57-54.69,38.35-57.78,138.52-94,183.15-26.58C1324.58,519.22,1293.43,803.33,1005.6,928.8Z"/><path class="cls-6" d="M1259.86,420.74c-44.63-67.43-144.8-31.2-183.15,26.58-12.69,19.13-52,57.59-163.57,54.69-115.63-3-241.39,17.88-246.07,85.17-5.67,80.39,126.6,82.88,153.28,152.44S782.5,1026,1005.6,928.8C1293.43,803.33,1324.58,519.22,1259.86,420.74Zm-206.18,409c-125.22,41.8-67.45-90.33-89.84-148.72s-140.78-44.74-141.37-100.3c-.61-46.85,89.35-55,162.36-59.49,77.5-4.77,105.92-34.38,116.23-53.35,26.52-48.74,105.32-80.8,142.85-23.52C1320.14,561.54,1209.21,777.83,1053.68,829.75Z"/><path class="cls-7" d="M1243.91,444.37c-37.53-57.28-116.33-25.22-142.85,23.52-10.31,19-38.73,48.58-116.23,53.35-73,4.49-163,12.64-162.36,59.49.59,55.56,119,41.91,141.37,100.3s-35.38,190.52,89.84,148.72C1209.21,777.83,1320.14,561.54,1243.91,444.37ZM1101.76,730.7c-29-19.79,23.68-61.05,5.57-108.27S984.72,605,977.87,574.28c-5.89-26.42,48.08-23.6,78.66-33.82,43.18-14.42,61.35-33,68.89-52C1141,449.18,1197.52,420.88,1228,468,1315.7,603.86,1122.6,744.9,1101.76,730.7Z"/><path class="cls-8" d="M1228,468c-30.44-47.13-87-18.83-102.54,20.45-7.54,19-25.71,37.58-68.89,52-30.58,10.22-84.55,7.4-78.66,33.82,6.85,30.72,111.35.93,129.46,48.15s-34.61,88.48-5.57,108.27C1122.6,744.9,1315.7,603.86,1228,468Z"/></svg>