<svg viewBox="0 0 2560 40" xmlns="http://www.w3.org/2000/svg" xmlns:xlink="http://www.w3.org/1999/xlink"><clipPath id="a"><path d="m0 0h2560v40h-2560z"/></clipPath><g clip-path="url(#a)" fill="#30261d"><path d="m2198.41 32.74c.67-3.74.88-4 3.83-4.13h1.12s.74 0 1.11 0c2.32 0 3 1.12 2.15 3.66a6.25 6.25 0 0 0 -.4 1c0 .26.15.75.29.77.69.11 1.56.37 2.07.07 1.67-1 1.67-3.24 3.2-4.4.71-.55 1.29-.79 1.79-.4a1.65 1.65 0 0 1 .58.91c.12.72.06 1.48.16 2.21.15 1.09 1.19 2.27 2 2.28q3.9.09 7.8.12 10.07.07 20.11.12c1.6 0 2.9-.65 2.59-1a8.13 8.13 0 0 0 -1.8-1.22 5.5 5.5 0 0 1 -.84-.69c-.68-.71-.28-2.57.61-2.78a20.47 20.47 0 0 1 4.31-.87c5.59 0 11.18.13 16.76.19 21.24.24 42.47.51 63.71.68 8.56.07 17.13-.06 25.7-.14a7.69 7.69 0 0 0 3.28-.36c3.18-1.63 6.54-1.16 9.87-1.17 10.44 0 20.87-.26 31.3-.1 3.7.06 7.19-1.8 10.91-.86 3.59-1.37 7.35-.9 11.06-.95 7.82-.11 15.64-.06 23.46-.23a40 40 0 0 0 9.92-1.12c3.15-.87 6.64-.58 10-.64 6-.11 11.93-.09 17.89-.15 1.48 0 3.15.27 4.42-.29 4-1.71 8-1.27 12.1-1.31q14-.13 27.93-.35a20.83 20.83 0 0 0 2.23-.12c13.69-1.59 19.24-1.85 31-1.38 2.49.1 2.68 1 1.74 3.9-.56 1.7-.52 1.74.68 2.56.61.42 1.31.71 1.91 1.15a4.59 4.59 0 0 1 2.26 3.6c0 2.23-.09 4.46 0 6.67.4 7.17.38 5.46-2.55 11.66a14 14 0 0 0 -1.6 6.34c0 1.11-.06 2.23 0 3.34a6.73 6.73 0 0 1 -2 5 12.86 12.86 0 0 0 -1.34 1.77 4.52 4.52 0 0 0 -.4 5.17 8.89 8.89 0 0 1 .75 2 1.52 1.52 0 0 1 -.81 1.87c-1.32.66-2.72 1.09-3.12 2.82a5.61 5.61 0 0 0 .81 4.22c1 1.71 1.42 3.62.45 5.28-1.72 3-1.67 6.42-3.18 9.43a5.9 5.9 0 0 0 .36 5.37 1.77 1.77 0 0 1 -.18 2 41.87 41.87 0 0 0 -3.77 5.48c-1 2-1.9 4-1.6 6.3.2 1.53-.72 2.78-1.29 4.14a75 75 0 0 0 -2.75 8.32 3 3 0 0 0 .41 2.09c1.49 2.53 1.16 4.78-.34 7.27a19 19 0 0 0 -2.93 9.4 10.64 10.64 0 0 1 -1.49 4.13 4.39 4.39 0 0 0 .16 4.19c1.62 3.29 1.47 6.46-.91 9.35a10.46 10.46 0 0 0 -2.8 7.06c0 1.94-1 3.49-1.89 5.13s-1.5 3.35-2.23 5c.58 4-2 7-3.32 10.37a3.09 3.09 0 0 0 -.3 2c.69 1.6.1 2.78-.73 4.07s-1.39 2.58-3 3c-1.43.38-2.83.88-4.24 1.36a11.66 11.66 0 0 1 -8.71-.1 10.39 10.39 0 0 0 -8.64-.23 16.28 16.28 0 0 1 -6.58.9q-15.09.18-30.17.31a15.05 15.05 0 0 0 -6.54 1 11.15 11.15 0 0 1 -4.35.63c-4.84.1-9.69 0-14.53.15-3.7.07-7.48-.37-11 1.31-4.09.19-8.17.48-12.26.56-7.08.14-14.16.15-21.24.18-3 0-5.88-.07-8.8 1-1.68.6-3.67.44-5.52.46q-27.93.16-55.87.26c-2.61 0-5.19-.13-7.65 1.08-1.42.71-2.91.2-4.31-.37-8.11 1.27-16.28.7-24.43.7-14.9 0-29.8-.24-44.7-.36-8.94-.07-17.88 0-26.82-.2-4.05-.09-8.16.32-12.15-1.06-.87-.3-2.12.72-3.19.71a12.23 12.23 0 0 1 -4.35-.67 9 9 0 0 0 -6.51-.17 4 4 0 0 1 -2.13.19c-8.08-2-16.32-1-24.46-1.13-21.23-.42-42.47-.35-63.7-.6-22.72-.26-45.44-.67-68.16-1-2.95-.05-5.87 0-8.77-1.19-2.43-1-5.1-.52-7.64.39a4.54 4.54 0 0 1 -3.2.2c-2.81-1.5-5.76-1.18-8.73-1.21q-24.58-.26-49.16-.57c-14.15-.17-28.3-.46-42.46-.53-21.22-.11-42.45.05-63.67-.15-7.45-.07-14.89 0-22.34 0-14.9-.18-29.8-.27-44.7-.42-2.61 0-5.17-.07-7.69.95a4.72 4.72 0 0 1 -3.21-.07 9.72 9.72 0 0 0 -7.56-.21 11.67 11.67 0 0 1 -8.73-.07c-1.94-.79-3.57-.34-5.33.35a4 4 0 0 1 -3.24-.14 11.51 11.51 0 0 0 -9.72-.3 5.89 5.89 0 0 1 -2.13 0c-2.56 0-5 .78-7.62.76-20.49-.14-41-.13-61.47-.2-8.57 0-17.14-.15-25.71-.23q-46.37-.45-92.75-.88c-2.25 0-4.48 0-6.57-.9a2.25 2.25 0 0 0 -2.1-.13c-2.08 1.11-4.33.84-6.56.82-7.83 0-15.65 0-23.47-.09-3.33 0-6.67.1-9.85-1.42-.79-.37-2.14.23-3.17.57a8.44 8.44 0 0 1 -6.51-.17 7 7 0 0 0 -6.41-.07 7.87 7.87 0 0 1 -6.51.12 4.61 4.61 0 0 0 -3.19-.05c-1.41.39-2.72-.63-4.29-.07a16.2 16.2 0 0 1 -10.94-.33 5.25 5.25 0 0 0 -4.27 0 5.17 5.17 0 0 1 -2.1.67c-2.6 0-5.35.35-7.76-.35s-4.59.87-6.44 0c-2.52-1.19-5.13.64-7.53-.89a4.24 4.24 0 0 0 -3.23-.26c-2.2.78-4.23 1.12-6.41 0-.6-.31-1.49 0-2.21-.16-3.31-.74-6.49 1.19-9.8.42a44.47 44.47 0 0 0 -10-.75c-3.35 0-6.7 0-10 0s-6.7-.24-10-.28-6.7.1-10.05.07q-23.46-.21-46.93-.46-33.53-.34-67.05-.68c-6-.06-11.92-.34-17.88-.34-2.55 0-4.93-1.83-7.56-.6a4.35 4.35 0 0 0 -4.21.17 6.49 6.49 0 0 1 -2.18.39c-1.87.18-3.39-1.46-5.31-1.07a43.9 43.9 0 0 1 -4.34.88 8.79 8.79 0 0 1 -5.42-.9c-1.46-.84-2.85-.38-4.28.06-1.86.59-3.5-1.49-5.31-.62-2.14 1-4.11 1.46-6.34.19a7 7 0 0 0 -3.22-.68c-4.1-.06-8.2 0-12.29 0a11.65 11.65 0 0 0 -4.32 1 9.08 9.08 0 0 1 -6.53-.13 29.27 29.27 0 0 0 -4.32-.89c-3-.58-5.9 1.42-8.71.59a36.28 36.28 0 0 0 -8.82-1c-3-.13-6-.07-8.94-.09l-63.67-.61c-3 0-6 .12-8.79-1.19-.52-.24-1.39.13-2.05.36a7.17 7.17 0 0 1 -5.44.06 17.89 17.89 0 0 0 -6.53-1.23 10 10 0 0 0 -5.42.87 8.68 8.68 0 0 1 -5.45.66c-2.18-.3-4.35-1.29-6.48-1.17-1.74.1-3.43 1.14-5.36 1.08-4.84-.13-9.69-.15-14.53-.15a15.31 15.31 0 0 1 -5.37-1.33 5.38 5.38 0 0 0 -4.34.13c-2.07 1.08-4.3.91-6.48 1.29-3.44.61-6.29-2.7-9.73-1.16-2.86 1.28-5.87.69-8.82.73a21.74 21.74 0 0 1 -5.48-.75c-4.34-1-8.73-1.49-13.14 0a12.47 12.47 0 0 1 -8.72-.2 5.08 5.08 0 0 0 -4.26-.11 7.57 7.57 0 0 1 -6.5.24c-3.58-1.66-7.29-1.07-11-1.08-1.84 0-3.45 1.65-5.36.65s-3.58 0-5.34.47a3.9 3.9 0 0 1 -2.19.07c-5.82-2-11.66-1.74-17.57-.49-.64.13-1.39-.34-2.11-.42-1.46-.17-2.92-.27-4.39-.39-2.85 1.79-5.57.82-8.53 0a13.23 13.23 0 0 0 -8.78.45 8 8 0 0 1 -6.51.07c-1.83-.78-3.65.73-5.38-.28-7.7 1.78-15.52.73-23.28.84-11.91.17-23.82-.15-35.74-.23l-79.33-.55-31.39-.13q-30.74-.19-61.46-.39c-14.15-.07-28.3 0-42.45-.12-11.54-.06-23.08-.24-34.62-.33-9.69-.07-19.37-.07-29-.11a9.24 9.24 0 0 0 -4.34.82c-2.56 1.29-5 .65-7.53-.29a6.62 6.62 0 0 0 -4.32-.3 22.52 22.52 0 0 1 -8.78 1.17c-17.14-.12-34.28-.29-51.42-.34-23.46-.07-46.93 0-70.4-.1-15.27 0-30.54-.17-45.81-.27-3.34 0-6.7-.32-9.88 1.22a2.63 2.63 0 0 1 -2.16-.12c-1.76-1.14-3.64.44-5.34-.37a12.46 12.46 0 0 0 -8.76-.59c-5.13 1.48-10.31 1.3-15.47 1.31-21.23 0-42.45-.13-63.68-.12-3.69 0-7.45-.52-11.06.85a3.44 3.44 0 0 1 -2.1-.21 11.73 11.73 0 0 0 -8.7.12 2.68 2.68 0 0 1 -2.13-.08 13.06 13.06 0 0 0 -9.75.31 6.67 6.67 0 0 1 -5.43-.13 12.16 12.16 0 0 0 -9.75-.15 5.74 5.74 0 0 1 -4.33-.06c-.34-.13-.75-.43-1-.35-6.24 1.86-12.52 1.24-18.77.14a6.39 6.39 0 0 0 -3.18.25 7.66 7.66 0 0 1 -5.46-.12 13.64 13.64 0 0 0 -5.41-1.14c-11.17-.14-22.35-.25-33.52-.44-6-.11-11.91-.33-17.87-.61a14 14 0 0 1 -4.33-.9 6.09 6.09 0 0 0 -4.29.15 5.07 5.07 0 0 1 -3.21.23c-3.18-1.4-6.53-1.41-9.86-1.57-4.44-.22-8.9.22-13.19-1.66-1.62-.71-3.67-.45-5.53-.57a35.86 35.86 0 0 1 -9.82-1.46c-2.68 1.72-5 0-7.34-.86-1-.38-2.24-.36-3.23-.82a17.57 17.57 0 0 0 -7.58-1.61c-3.39 0-6.5-1.25-9.74-2-3-.7-5.47-2.24-8-3.68a5 5 0 0 1 -2.64-3.4c-.76-3.95-2.8-7.66-2.12-11.91a6.14 6.14 0 0 0 -.8-3.18 14.81 14.81 0 0 1 -1.23-5.36c-.24-3.68.12-7.43-1.33-11-.13-.32-.29-.8-.15-1 2.22-3.65 1.17-8 2.65-11.85s2-7.85 4.63-11.13a5.28 5.28 0 0 0 .41-6.21 12.26 12.26 0 0 1 -1.55-4.11c-.32-2.88.72-6-1.36-8.59-.11-.14.22-.66.4-1a4.29 4.29 0 0 0 -.17-5.15 4.49 4.49 0 0 1 -.48-5.18 11.85 11.85 0 0 0 1.62-6.27c0-2.21 0-4.44.2-6.65a5.44 5.44 0 0 0 -2-4.88 5.75 5.75 0 0 1 -2.26-4.83c0-2.22-.11-4.45-.07-6.67 0-2.61 0-5.11-1.37-7.53s-.56-5.1-.74-7.66a1.65 1.65 0 0 1 .17-1.08c3.4-3.84 1.37-8.51 2-12.76.06-.37 0-.83.17-1.08.43-.56.94-1.34 1.53-1.46 2.18-.43 4.36-.68 6.38-1.81.88-.48 2.17-.28 3.27-.29a7.13 7.13 0 0 1 2.21.27c4.22 1.35 8.35 3.06 12.73 3.83 4 .71 8.19.23 12.13 1.61 1.14.4 2.08-.42 3.11-.75a23.7 23.7 0 0 1 3.28-.6c.34.56.56 1.42 1 1.62a9.61 9.61 0 0 0 6.2.15c.27-.08.47-.38.7-.57-.28-.22-.55-.61-.84-.63-2.45-.13-4.91-.19-7.37-.27a5.06 5.06 0 0 0 -4.47-4.28c-3.62-.66-7.38-.42-10.81-2.31-1.19-.65-2.92-.32-4.41-.43a25.42 25.42 0 0 1 -7.63-1.47 17.38 17.38 0 0 0 -5.43-1c-3.81-.18-7-2.14-10.56-3.18a4.84 4.84 0 0 1 -3.27-4.17 4.4 4.4 0 0 1 .49-2.07c.33-.77 1-.78 1.84-.35 4 2 8.09 3.78 12.72 3.64 4.2 1.74 8.65 2 13.11 2.16a4.8 4.8 0 0 1 2.15.46c3.07 1.77 6.47 1.55 9.78 1.75a22.51 22.51 0 0 1 7.64 1.37 14.53 14.53 0 0 0 4.36.7c2.46.23 4.72-1.71 7.47-.12 2.18 1.25 5.17.39 7.55 1.68a4.73 4.73 0 0 0 4.27-.11c.34-.14.78-.39 1.06-.28 6.45 2.52 13.26 1.06 19.87 1.73 4.78.49 9.64-.27 14.35 1.55 2 .76 4.42.36 6.66.39q19 .27 38 .48 26.81.27 53.61.45h17.88a8.67 8.67 0 0 0 3.32-.24c3.92-1.75 8-1.37 12.1-1.23s8.22-.71 12.18.77a2.66 2.66 0 0 0 2.14 0c2.48-1 5.16-.5 7.71-.88 3-.44 5.6 2 8.63.74 2.47-1 5.13-.63 7.73-.61 3 0 6-.07 8.93-.1l7.82-.07c3 0 6 0 8.93-.08a9.6 9.6 0 0 0 2.21-.25 1.79 1.79 0 0 0 1.31-1.53c.2-.91 0-1.52-.9-1.78a13.7 13.7 0 0 0 -8.72-.05c-1.44.53-2.65 1-4.09.09-2-1.31-4.4-.32-6.51-1-.33-.11-.58-.46-.86-.7.43-.41.86-1.17 1.3-1.18 4.09-.11 8.19-.1 12.28-.09 3 0 5.92.06 8.74-1.26 2.07-1 4.38-.6 6.61-.6 11.91 0 23.82 0 35.73-.1a29.13 29.13 0 0 0 5.49-.68 5.57 5.57 0 0 1 3.21 0c4.3 1.6 8.81 1.3 13.25 1.22 16.75-.32 33.48.54 50.22.5 3.66 0 7.48-.63 10.94 1.32 3.13-1.56 6.51-1.26 9.84-1.3 5.95-.07 11.9-.08 17.85-.1 4.44 0 8.94.62 13.21-1.32a3 3 0 0 1 2.15.26c1.5.66 2.83.19 4.27-.19a11.26 11.26 0 0 1 7.65.46 4.66 4.66 0 0 0 4.24.1 11.93 11.93 0 0 1 5.45-.94c16.38.13 32.77.28 49.16.34q37.42.15 74.85.17a19.16 19.16 0 0 0 4.38-.59 5.22 5.22 0 0 1 3.2.06 10.38 10.38 0 0 0 3.24.69c5.58.11 11.18 0 16.76.21 2.24.08 4.19-1.75 6.46-.79a14 14 0 0 0 5.48.78c2.61 0 5.21.07 7.82.11 18.25.26 36.49.56 54.73.78 11.55.14 23.09.17 34.63.25 2.62 0 5.2 0 7.6-1.36.45-.25 1.4.15 2 .46a6.68 6.68 0 0 0 6.39-.22 7.12 7.12 0 0 1 6.41-.12 14.51 14.51 0 0 0 11.83 0 9.26 9.26 0 0 1 9.5.94 2.66 2.66 0 0 0 3.12-.16c2.3-1.61 4.74-2.1 7.26-.46.69.44 1.25.24 2.05-.05 2.41-.85 4.9-1.51 7.36-2.25 2.8.88 5.65 1.62 8.37 2.69a8.32 8.32 0 0 0 6.46 0 9.92 9.92 0 0 1 4.29-.94c8.18.38 8.21.44 13.83-1.39 3.13-1 5.82-.8 8.19 1.6a5.35 5.35 0 0 0 7.08 1 6.18 6.18 0 0 1 1-.47 3.47 3.47 0 0 1 3.18.18c3.07 2 6.45 1.34 9.77 1.17 2-1.49 4.08-1 6.26-.24 1.4.48 2.62-1.22 4.2-.7a37.31 37.31 0 0 0 4.28 1.1 6.53 6.53 0 0 0 5.33-.94 3.24 3.24 0 0 1 4.07 0c1.12.76 2.07.12 3.1-.22.68-.23 1.6-.58 2.11-.31 2.42 1.3 4.73 2 7.26.24a2.21 2.21 0 0 1 2.08-.09c1.9 1.7 4.28-.34 6.23 1a2.47 2.47 0 0 0 3.75-1 3.85 3.85 0 0 1 3.52-2.21c3 0 6-.35 8.73 1.19a3.13 3.13 0 0 0 3.18-.06 3.91 3.91 0 0 1 3.13-.06c3.81 1 9.58 1.41 12 .35a17.61 17.61 0 0 1 7.59-1.29c10.8.11 21.6.12 32.4.26 3.32 0 6.76-.28 9.76 1.7 2.2.21 4.43.75 6.57-.34a9.66 9.66 0 0 1 4.26-1.1q7.26-.12 14.52-.32c2.63-.07 5.19 0 7.5 1.56a2.33 2.33 0 0 0 2.1.08c3.09-2.07 6.48-1.24 9.79-1.21a21.66 21.66 0 0 1 8.71 1.43c1.58.68 3.65.23 5.5.29 4.17-2.23 8.73-1.41 13.15-1.63 2.22-.11 4.46.13 6.69 0a10.16 10.16 0 0 1 5.31 1.33 5.44 5.44 0 0 0 5.33-.13 12.66 12.66 0 0 1 6.47-1.38q19 .39 38 .76c2.23 0 4.47 0 6.71-.08a12.81 12.81 0 0 0 5.38-1.16c3.35-1.6 7.47-.45 10.65-2.79a54.89 54.89 0 0 0 7.81-.14c3-.47 5.67 1.7 8.56.71 2.56-.88 5.16-.61 7.75-.64a24.31 24.31 0 0 1 6.6.65c1.47.39 2.64.78 4.14.07a6.48 6.48 0 0 1 3.25-.43c1.42.13 2.8.85 4.2.85s2.88-.82 4.32-.81c13 0 26.07.13 39.1.21a9.47 9.47 0 0 1 4.35.78 2.63 2.63 0 0 0 2.09 0 16.55 16.55 0 0 1 4.37-.58c2.21 0 4.46-.25 6.62.6 2.58 1 4.89-1.15 7.53-.67 2.17.4 4.46.14 6.69.25 4 .19 8.22-.7 12 1.48a26.15 26.15 0 0 0 3.2-.76 8 8 0 0 1 6.5.06c1.75.86 3.62.66 5.41 1 3.29.67 6.46-2.34 9.71-.14 3 .1 5.95.22 8.93.28 3.35.07 6.7.09 10 .14 1.86 0 3.72.17 5.5-.6a4 4 0 0 1 3.19-.07c2.83 1.16 5.84.95 8.81 1l35.75.34q32.4.3 64.8.6c2.64 0 5.18 0 7.59 1.34a3.85 3.85 0 0 0 3.31-.27 11.35 11.35 0 0 1 9.71.37 5.09 5.09 0 0 0 4.31.34c4-1.68 7.84-2 11.85-.16a5.92 5.92 0 0 0 5.37-.19 7.23 7.23 0 0 1 6.45-.33 11.75 11.75 0 0 0 8.69.51 7.15 7.15 0 0 1 4.27.2 43.4 43.4 0 0 0 5.51.62c2.84.35 5.63-2.32 8.49-.11 3.34.14 6.68.32 10 .42 3 .08 6 .06 8.94.15a8.46 8.46 0 0 1 2.15.43 3 3 0 0 1 .82.6c-.3.22-.59.64-.89.64q-12.26.15-24.51.22c-.75 0-1.49 0-2.23 0a5.19 5.19 0 0 0 -3.82 2c-.24.25-.52.86-.41 1a3.45 3.45 0 0 0 1.49 1.16 4.94 4.94 0 0 0 4.2-.95c.94-.67 2.32-1.35 3.05-.74 2.2 1.84 4.08.05 6.11 0 6-.17 11.9 0 17.86.08a4 4 0 0 1 2 .81c1.12.79 2 .27 3-.16a6.53 6.53 0 0 1 6.37.49 5.56 5.56 0 0 0 6.26 0 6 6 0 0 1 3.15-.92c4.4.31 8.87-.65 13.21 1.14 1.49.61 3.5-.72 5.21.31 3.44-2 7.29-.9 10.93-1.42a7.76 7.76 0 0 1 5.36 1.15 9.73 9.73 0 0 0 6.42 1.4c5.58-.57 11.17-.21 16.75-.25 2.57 0 5.17.32 7.53-1.32.85-.58 2.15-.13 3.15.46 1.66 1 3.56 1.57 5.29.67a4.92 4.92 0 0 1 5.14.06 2.6 2.6 0 0 0 2.13-.2c1.46-.85 2.64-.36 4.1.09 2.46.74 5.16 1.23 7.56-.18a4.35 4.35 0 0 1 5.12 0 7.26 7.26 0 0 0 4.3.87c6.69-.12 13.38.55 20.08.07a75.64 75.64 0 0 1 7.81.2 11.15 11.15 0 0 0 6.39-1.55c1.35-.84 2.88-.49 4.33-.19 4.31.91 6 .41 8.32-2.77a3.37 3.37 0 0 1 2.68-1.72c1.86-.09 3.72-.19 5.58-.17 17.13.16 34.26.4 51.4.51 13.4.09 26.8-.06 40.19 0 16.76.1 33.52.36 50.28.48 7.45.06 14.9-.12 22.34 0 12.67.15 25.33.53 38 .64 14.89.13 29.78 0 44.67.12 11.55.07 23.09.26 34.63.46a49.12 49.12 0 0 1 6.63.65 4.16 4.16 0 0 1 1.77 1.25 2.19 2.19 0 0 1 .23 2.91c-.44.83-.16 1.39.89 1.45 2.23.14 4.46.26 6.69.24.6 0 1.19-.57 1.79-.88a12.09 12.09 0 0 0 -1.9-1c-.7-.22-1.5-.13-2.2-.35-1-.3-1.17-.91-.71-1.6.87-1.29 2-2.29 3.64-2 1.08.17 2.12.91 3.17.9s2.1-1 3.15-1c7.44 0 14.89 0 22.33.22 2.11.07 4.18 1.44 6.34.11 4.46 0 8.93-.06 13.4-.05a4.59 4.59 0 0 1 2.15.44c2.74 1.55 5.77 1.29 8.71 1.41 2.6.1 5.21-.1 7.82-.06q16.19.2 32.38.48a5.47 5.47 0 0 1 4 1.75 1.45 1.45 0 0 1 -.38 2.49l-1.89 1.1a16.38 16.38 0 0 0 1.09 1.81 3.05 3.05 0 0 0 3.94 1c2.16-1.08 4.2-1.35 6.33-.06a1.72 1.72 0 0 0 1.06.22 5.67 5.67 0 0 0 2.12-.48c2.47-1.47 4.83-1.68 7.25.11a3.56 3.56 0 0 0 4.16-.06c.63-.37 1.09-1 1.69-1.44s1.33-1.15 1.86-1 .79 1.15 1.26 1.69 1 1.36 1.59 1.37c4.08.13 8.17.13 12.25 0 .87 0 1.19-.76 1.15-1.58-.07-1.29-1-2.13-2.14-1.78s-2.08 1.14-3.08 1.08-1.92-1.07-3-1.44-2.15-.41-3.2-.68c-.26-.06-.65-.53-.59-.69a1.47 1.47 0 0 1 .74-.79c2.42-.86 4.66-2.11 7.4-2.15a118.15 118.15 0 0 1 15.63.33 5.32 5.32 0 0 1 3.62 2.35c.84 1.11.19 3.38-1.13 3.59-1.82.27-3.66.41-5.48.67-.3 0-.55.4-.83.62.31.2.61.57.94.59 2.21.16 4.45.11 6.64.39 2.82.37 4.95-1.27 7.35-2.14a2.1 2.1 0 0 0 1.93 2 1.34 1.34 0 0 0 1.6-.78c0-.1-.47-.57-.76-.61-1.03-.1-2.06-.13-3.08-.2zm-999.22-16.69c-1-.07-2.1-.21-3.16-.18a6.76 6.76 0 0 0 -2 .43c-.31.1-.55.43-.82.65.27.21.51.54.81.61 3.34.84 3.82.71 5-1.75a1.36 1.36 0 0 0 1.77-.87c0-.14-.49-.68-.62-.64a1.36 1.36 0 0 0 -.98 1.75zm-1138.42 15.36a2.1 2.1 0 0 0 1.93 2 13.3 13.3 0 0 0 3.07-.24c.26 0 .47-.37.71-.56-.27-.22-.53-.62-.81-.64-1.72-.14-3.45-.19-5.17-.27-.33-.57-.52-1.45-1-1.67a8.56 8.56 0 0 0 -6.2-.27c-.3.1-.52.41-.78.62a3.39 3.39 0 0 0 .86.63 18.83 18.83 0 0 0 7.39.4zm953.9 100.81c2.15.43 4.43.09 6.49 1.22a7.21 7.21 0 0 0 3.14.92q7.79.09 15.57-.08c.8 0 1.13-.82 1.29-1.51.22-.91 0-1.56-.93-1.71-7.72-1.25-15.51-.66-23.26-.72a1.4 1.4 0 0 0 -1 .41 13.85 13.85 0 0 0 -1 1.76 5.08 5.08 0 0 0 -1.7.75c-.62.64-.34 1 .52.57a1.48 1.48 0 0 0 .88-1.61zm1042.33 12.54a1.36 1.36 0 0 0 .86 1.6c.85.36 1.15 0 .55-.54a5.24 5.24 0 0 0 -1.71-.76 2.12 2.12 0 0 0 -2.17-2c-7.81-.31-15.62-.52-23.43-.8a16 16 0 0 1 -4.39-.5c-1.46-.49-2.71-.88-4.19-.1a2.71 2.71 0 0 1 -2.13.17c-3.14-1.54-6.46-1.65-9.81-1.38-1.43.12-2.84.95-4.25.93s-2.83-1-4.27-1c-8.92-.43-17.85-.38-26.78-.24a3.39 3.39 0 0 0 -1.11.09c-2.11.88-4.19 1.43-6.21-.21-6.27 0-12.6-1.26-18.77.79a2.84 2.84 0 0 1 -2.09-.18c-2.84-1.09-5.86-.79-8.81-1a7.06 7.06 0 0 0 -3.26.5c-5.07 2.28-10.11 1.86-15.19.16a4.42 4.42 0 0 0 -1-.41c-3.7-.25-7.45-.78-11.06.38a5.66 5.66 0 0 1 -4.19-.37 6.14 6.14 0 0 0 -5.38.33 1.8 1.8 0 0 1 -2 .08 4.26 4.26 0 0 0 -4.23-.28 10.73 10.73 0 0 1 -9.67 0 2 2 0 0 0 -2.08.16 6.47 6.47 0 0 1 -6.39.11 14.88 14.88 0 0 0 -10.86-.35 18 18 0 0 1 -5.38 1.2c-13 0-26.06.17-39.08-.17-6-.15-11.89-.36-17.84-.29a11.84 11.84 0 0 0 -6.41 1.47 2.48 2.48 0 0 1 -2.11.09c-3.47-2-7.14-1.59-10.83-1.08-.27 0-.51.37-.76.57.28.24.52.62.84.72 1.39.42 3 0 4.25 1a8.89 8.89 0 0 0 5.27 1.51l26.8.17a10.61 10.61 0 0 0 5.29-1.44 5.32 5.32 0 0 1 5.3.25 2.88 2.88 0 0 0 3.09.11 3.7 3.7 0 0 1 3.19-.26c1.4.43 2.77 1.25 4.19 1.31 4.83.23 9.68.33 14.51.21s9.66 1.23 14.35-.85c.53-.23 1.4.19 2.07.42a7.48 7.48 0 0 0 5.43.1c.67-.26 1.55-.82 2-.59 3.91 1.86 8.07.94 12.1 1.26a10.64 10.64 0 0 0 5.36-1.22 5.76 5.76 0 0 1 5.35.18 4.58 4.58 0 0 0 4.22.47 15.4 15.4 0 0 1 11.9 0 8.39 8.39 0 0 0 6.47 0 11.29 11.29 0 0 1 8.67-.34c.35.14.72.45 1 .4 2.49-.41 5-1.18 7.41.26.19.12.68-.21 1-.37a4.28 4.28 0 0 1 4.23-.05 5.41 5.41 0 0 0 1 .46 3.9 3.9 0 0 0 3.2-.15 10.57 10.57 0 0 1 9.64 0 6.89 6.89 0 0 0 6.41-.05 4.1 4.1 0 0 1 4.21 0 8.37 8.37 0 0 0 4.29 1c4.47.06 8.93.19 13.4.27 3 0 6 .31 8.62-1.52a1.53 1.53 0 0 1 1.1 0 14.47 14.47 0 0 0 3.14.91c1 0 2-1 3.15-.39a4.47 4.47 0 0 0 4.24.31 8.32 8.32 0 0 1 4.31-1c6.62.45 13.41-1.33 19.83 1.6a1.45 1.45 0 0 0 1.1 0c4.19-2.08 8.69-1.49 13.11-1.64a10.46 10.46 0 0 1 5.24 1.54c1.46.76 2.84.26 4.15-.62a12.51 12.51 0 0 1 2-.94zm-369.18-.71v.3c3 0 6 .06 8.93.07 15.64.06 31.29.08 46.93.17 9.31 0 18.63.24 27.94.3a28.25 28.25 0 0 0 4.38-.5.87.87 0 0 0 .58-.63 1.66 1.66 0 0 0 -.44-1 5.64 5.64 0 0 0 -3.84-2c-5.58-.1-11.16-.22-16.74-.1-1.39 0-2.71 1.19-4.14 1.45-3.67.67-7.55 1.09-11-.32-4-1.64-8-1.65-12-1.71-3.72-.05-7.44 0-11.16 0-5.59 0-11.18 0-16.77 0-1.48 0-3.17-.2-4.4.4-3.89 1.91-8 1.56-12 1.53q-17.32-.16-34.65-.23a9.4 9.4 0 0 1 -4.22-1.22 7.51 7.51 0 0 0 -3.18-.79c-7.45 0-14.88-.85-22.34-.25-2.59.21-5.22 0-7.82 0-8.93-.15-17.86-.36-26.79-.46-8.19-.08-16.39.09-24.58-.11q-17.3-.42-34.6-.35c-14.16 0-28.31-.17-42.47-.32a10.49 10.49 0 0 1 -4.35-.65c-4.3-2.05-8.49-1.72-13-.51-4.27 1.15-8.74 1.83-13.08-.16-1.69-.78-3.55 1.18-5.2-.31-5.76 2-11.7 1.33-17.61 1.17-3-.08-6-.08-8.93-.12l-26.82-.29c-2.23 0-4.45.1-6.56-.94-.53-.27-1.37 0-2.06.15a30 30 0 0 1 -4.34.79c-6.33.1-12.66.07-19 .07a10 10 0 0 1 -5.37-1.19 2.08 2.08 0 0 0 -2.1-.19 8.24 8.24 0 0 1 -7.49-.13 8 8 0 0 0 -3.21-.79c-3.73-.07-7.46 0-11.18.08a5.23 5.23 0 0 0 -2.14.48 11.4 11.4 0 0 1 -10.69-.21 5 5 0 0 0 -4.33-.23c-3.93 1.89-7.58 2.18-11.71.16a8.33 8.33 0 0 0 -8.51.77 21.83 21.83 0 0 1 -2 .85 1.55 1.55 0 0 0 -.69.84c0 .12.41.54.68.6 4 .94 8.12.65 12.2.75q5.58.13 11.17.23a9.54 9.54 0 0 1 4.29 1 4.25 4.25 0 0 0 4.24-.09 8.38 8.38 0 0 1 4.27-1c5.59.08 11.18.12 16.77.27a7.13 7.13 0 0 1 3.17.84 6.75 6.75 0 0 0 7.36-.13 7.59 7.59 0 0 1 4.31-.89c8.94.19 17.87.43 26.81.54a12.05 12.05 0 0 1 5.33 1.27 2.75 2.75 0 0 0 2.14.18c4.54-2.59 9.49-1.31 14.25-1.48 3.66-.13 7.5-.44 10.84 1.79a1.49 1.49 0 0 0 1.1 0 13.88 13.88 0 0 1 3.14-1c1 0 2 1 3.14.47 3.18-1.43 6.54-1.19 9.89-1.15 6 .09 11.92.12 17.87.26a7.46 7.46 0 0 1 3.2.76c3.22 1.69 6.44 1.5 9.7.31a8.31 8.31 0 0 1 6.49 0 2.31 2.31 0 0 0 2.12.08 7.55 7.55 0 0 1 7.44.33 5.55 5.55 0 0 0 5.36.1 6 6 0 0 1 5.23-.39 20 20 0 0 0 13.11.28c3.38-1 6.44-1.27 9.72.11a11.77 11.77 0 0 0 4.34.75c14.15.23 28.3.38 42.45.58a9.86 9.86 0 0 0 5.27-1.5 2.81 2.81 0 0 1 3.12.18 9.31 9.31 0 0 0 5.33 1.36c3.72 0 7.45.09 11.17.12 2.24 0 4.48.08 6.51-1.13.67-.41 1.28-.2 2 .2 2.4 1.29 5.06 1.13 7.65 1.15 19.74.09 39.48.12 59.22.2 7.41.04 14.86.13 22.31.18zm-579.89-8.59c21.59.16 38 .3 54.35.41a7.94 7.94 0 0 1 4.28.91 4.66 4.66 0 0 0 5.23-.16 4.57 4.57 0 0 1 4.3-.31c2.92 1.47 5.51 1.14 8.51.11a9 9 0 0 1 7.55.77c2.31 1.33 5 1.07 7.58.25a3.79 3.79 0 0 1 3.13-.07c2.76 1.36 5.8 1.12 8.76 1.13 4.1 0 8.19-.11 12.29-.08q29 .24 58.08.54a44.17 44.17 0 0 0 4.45-.2 7.41 7.41 0 0 0 2.1-.6 1.57 1.57 0 0 0 1-1.8c-.16-.9-.78-1.2-1.52-.8-1.72.95-3.81 1.51-5.36.65-3.5-1.94-7.16-1.72-10.87-1.75-12.66-.09-25.32-.16-38-.3-3 0-6 .07-8.76-1.26a2 2 0 0 0 -2.1 0 8.68 8.68 0 0 1 -4.3 1c-8.93-.06-17.85-.16-26.78-.2a14.89 14.89 0 0 1 -5.29-1.37c-3.13-1.18-9.8-1-13.08.3a12.94 12.94 0 0 1 -5.39.95c-3-.08-6-.12-8.93-.15-2.6 0-5.23-.2-7.81 0-2.85.24-5.5-2.8-8.43-.44-2.1-.6-4.18-1.53-6.32-1.72-3.69-.32-7.43-.23-11.15-.2a14.64 14.64 0 0 0 -4.39.59 6.74 6.74 0 0 1 -4.15.18c-4.71-1.19-9.59-.71-14.41-.89a4.25 4.25 0 0 0 -2.09.66 4.71 4.71 0 0 1 -5.2.26c-2.4-1.4-5-1.19-7.58-.51-1.41.37-2.56.9-4.14.24a15.93 15.93 0 0 0 -5.42-1c-4.09-.17-8.19-.15-12.28-.13a21.11 21.11 0 0 0 -4.42.44c-.54.12-1 .9-1.34 1.48-.51.88.54 2.12 1.76 2.2s2.23.19 3.34.21zm1002.07 7.75v.13l-7.78-.06a3.41 3.41 0 0 0 -1.11.12c-1.73.6-3.45 1.25-5.19 1.84-.34.12-.75 0-1.1.1-.87.24-1.34.7-1.12 1.15a1.27 1.27 0 0 0 .92.55c6.67.3 13.34.76 20 .8 10.37.08 20.75-.23 31.13-.18 5.15 0 10.42-.53 15.28 2a5 5 0 0 0 2.17.33c5.94 0 11.87.06 17.8 0a7.22 7.22 0 0 0 3.19-.78c1.24-.64 2.12 0 3.09.43a3.45 3.45 0 0 0 4.06-.68 3.14 3.14 0 0 0 1.06-1.81c0-.34-1-1-1.6-1-8.15-.19-16.3-.35-24.45-.4-10.39-.07-20.77.11-31.15-.07-5.85-.1-11.91 1.06-17.43-2zm-1167.53-12.39c-.56-.34-1.12-.94-1.69-1-8.15-.22-16.3-.37-24.45-.5a7.44 7.44 0 0 1 -4.26-.92c-1.77-1.22-3.36-.72-5.17 0-2.8 1.14-5.83.7-8.76.71-11.85.05-23.71 0-35.56.05a1.4 1.4 0 0 0 -.91.6c-.29.42.08 1.13 1 1.22 2.2.22 4.47 0 6.63.34s3.94 2 6.12.17c.36-.3 1.51 0 2.08.32a3.58 3.58 0 0 0 4.09 0 2.8 2.8 0 0 1 3.13.1c.54.38 1.48.81 1.95.59 3.55-1.66 7.28-1 11-.92a7.16 7.16 0 0 1 3.12.87 5.09 5.09 0 0 0 5.23-.2 4.71 4.71 0 0 1 2.11-.27 2.3 2.3 0 0 1 1 .44 7 7 0 0 0 7.37.17c1.37-.73 2.75-1.09 4.16-.18a4.55 4.55 0 0 0 5.17.12 5.66 5.66 0 0 1 6.27.17 1.72 1.72 0 0 0 2.07.17c1.07-.66 2-.22 3.08.19a3.43 3.43 0 0 0 2.12.36 11 11 0 0 0 2.73-1.7c.17-.1.22-.56.37-.9zm-857.2-98.82c-2.23 0-4.47-.19-6.68 0-2.55.21-5.14-.85-7.65.26-.25.12-.42.43-.63.66.3.22.59.61.9.63 3 .18 5.89.42 8.84.43a33.7 33.7 0 0 1 9.75 1.72c.85.26 2-.63 3.09-.94a3.31 3.31 0 0 1 3.15.23 8.67 8.67 0 0 0 5.3 1.27q23.39.14 46.76.25c.31 0 .62-.39.93-.59-.42-.36-.82-1-1.25-1q-16.69-.42-33.4-.69a11 11 0 0 1 -5.31-1.27 3.23 3.23 0 0 0 -3.17 0c-1.32.72-2.7 1.32-4.18.53a11 11 0 0 0 -5.31-1.49c-3.72 0-7.41 0-11.14 0zm737.07 96.84v.12c-7-.06-14.08-.12-21.12-.14a7.43 7.43 0 0 0 -2.1.48c-.12 0-.24.6-.19.62 2.23 1.19 4.23 2.95 7 2.9h1.11c6.23-.2 12.56.85 18.62-1.54a2.73 2.73 0 0 1 2.14.12 4.38 4.38 0 0 0 5.11 0c3.32-.05 6.64 0 10-.19a9.28 9.28 0 0 1 5.21 1.47c1.44.84 2.83.19 4.13-.6a3.08 3.08 0 0 1 3.13-.13c.33.16.69.26 1 .41a1 1 0 0 0 1.6-.77 1.46 1.46 0 0 0 -.79-1.83c-2.74-1.11-5.92-.39-8.54-2.06a1.22 1.22 0 0 0 -1 .1c-4.56 2.44-9.46.88-14.19 1.13-3.71.07-7.46-.11-11.12-.14zm-474.82-106v.27c5.16-.24 10.31-.47 15.47-.74.33 0 .64-.34 1-.53-.28-.23-.54-.63-.86-.67a29.11 29.11 0 0 0 -4.35-.49q-19.42-.16-38.86-.23-6.66 0-13.32 0a1.31 1.31 0 0 0 -.89.59c-.28.44.1 1 1 1.19 1.45.24 3.05 0 4.4.45 2.8 1 5.48 2.46 8.27.06 2.57-.25 5.15-.54 7.55.83a3.88 3.88 0 0 0 4.17.16 7.67 7.67 0 0 1 4.23-1c4.05.02 8.12.02 12.19.06zm-133.78 13.49c.59-.28.5-.46-.23-.63-.35-.09-.66-.42-1-.43-11.16-.21-22.32-.44-33.48-.56-5.95-.07-11.9.06-17.85.14a1.21 1.21 0 0 0 -.91.58c-.2.43.29 1 1.19 1.08 5.95.19 11.9.38 17.85.42 10.79.07 21.58 0 32.37 0a7.3 7.3 0 0 0 2.06-.6zm544.68 96.11a9.56 9.56 0 0 0 2.1-.29 5.06 5.06 0 0 0 1.84-1.15 10.14 10.14 0 0 0 1.23-1.77c-.63-.32-1.25-.9-1.89-.91-10.29-.08-20.58-.09-30.87-.1-.33 0-.66.27-1 .37-.91.25-1.16.79-1 1.71.16.71.44 1.38 1.23 1.52a5.59 5.59 0 0 0 2.14-.17c.68-.16 1.67-.92 1.93-.7 1.73 1.43 3.59-.44 5.09.24 2.42 1.09 4-1.2 6.24-1 2.54.23 5.15-.17 7.51 1.19a10.92 10.92 0 0 0 5.45 1.06zm213.26-2.52v.08l-6.67-.06c-1.84 0-3.69-.12-5.53 0a6.09 6.09 0 0 0 -2 .88c.59.35 1.17 1 1.76 1 7.4.18 14.8.27 22.2.39 2.22 0 4.45.06 6.66.18a7.39 7.39 0 0 1 3.23.57c2.62 1.55 4.86.8 7.22-.55.61-.35 1.87-.47 1.73-1.06-.25-1.12-1.53-1-2.51-1.08-2.56-.23-5.23.12-7.58-1.25a1.91 1.91 0 0 0 -2.07-.16 13 13 0 0 1 -6.48 1.14c-3.29 0-6.64-.06-9.96-.08zm1251.77 20.51v.1c1.48 0 3 .05 4.43 0a28.18 28.18 0 0 0 3.32-.19c1-.14 1.39-.62 1.13-1.07-.17-.28-.56-.64-.84-.63-2.71.09-4.82-1.89-7.39-2.09s-5.18-.13-7.76-.19a8.19 8.19 0 0 1 -1.11 0c-3.5-.51-6.5.81-9.4 2.49a1.06 1.06 0 0 0 -.37.67 2 2 0 0 0 .92.58 7.91 7.91 0 0 0 5.34-1 3 3 0 0 1 3.12 0 8.72 8.72 0 0 0 4.17 1.29zm-1440-22.13c-4.55.13-8.61.22-12.67.36-.33 0-.95.38-.93.48a4.44 4.44 0 0 0 .63 1.81 4.34 4.34 0 0 0 3.94 1.57 7.19 7.19 0 0 0 3.13-.92 6 6 0 0 1 6.27-.12c1.33.72 2.79 1.44 4.15.54 1.93-1.27 4.2-1.07 6.23-1.81.28-.1.47-.46.7-.7-.31-.21-.61-.56-.93-.59-3.68-.24-7.35-.44-10.53-.62zm-361.2-105.3c1-.07 4.66.54 8.27-.24.28-.06.49-.41.73-.63-.3-.21-.59-.57-.91-.61a134.76 134.76 0 0 0 -20.88-.22c-.32 0-.62.36-.95.52-.6.27-.53.39.19.59 3.58.96 7.24.85 13.55.59zm276.9 107c2.58-.09 6.22-.21 9.86-.38.31 0 .61-.37.92-.57-.29-.23-.55-.61-.86-.66-6.91-.94-13.85-.4-20.78-.4-.94 0-1.33.66-1 1a1.46 1.46 0 0 0 .92.53c3.3.2 6.59.31 10.94.48zm1375.21 13.08a15.85 15.85 0 0 0 -2 .12 1.39 1.39 0 0 0 -.92.5c-.27.44.12.92.92 1.3 1 .46 1.94.9 2.89 1.39a10.12 10.12 0 0 0 5.23.86c1.9-.09 3.18-1.13 2.74-2.36s-1-1.72-2.27-1.75-2.89-.04-6.59-.07zm-1021.36-8.24c1-.09 1.69-.11 2.4-.24.33-.07.91-.38.89-.51a3 3 0 0 0 -.54-1.77 6.05 6.05 0 0 0 -2.69-1.62 17.2 17.2 0 0 0 -7.52.12 4.94 4.94 0 0 0 -1 .51c.21.29.36.7.65.86 2.53 1.39 4.97 2.99 7.81 2.65zm1298.93 12.34c-2.35.1-4.55.13-6.74.34-1 .1-1.31.69-1 1.1a1.48 1.48 0 0 0 .89.58q7.09 0 14.19-.18c.3 0 .6-.39.9-.6-.27-.2-.53-.57-.83-.6-2.5-.25-5.03-.45-7.41-.64zm-1632.85-19.18c-1 .08-2.83.2-4.66.39a1.48 1.48 0 0 0 -.93.55 1.76 1.76 0 0 0 -.22 1 1.54 1.54 0 0 0 .3.92c.19.2.69.42.85.32 3.06-1.9 6.5-.76 9.72-1.27.86-.14 1.28-.79 1.07-1.25a1.24 1.24 0 0 0 -.88-.62c-1.47-.04-2.95.01-5.25-.04zm-344.56-105.11c2.05-.1 4.22-.2 6.38-.36.32 0 .6-.38.91-.58-.47-.36-.94-1-1.42-1q-5.43-.18-10.88-.09c-.47 0-.93.67-1.39 1 .28.22.56.61.86.64 1.8.18 3.61.27 5.54.39zm-33.7 105.27c-.3-.2-.58-.52-.91-.59a18.47 18.47 0 0 0 -7.55-.06 2.92 2.92 0 0 0 -.94.44 5.1 5.1 0 0 0 .9 1.89 2.5 2.5 0 0 0 1.82.85c2.08-.47 4.11-1.17 6.15-1.84.23-.07.35-.45.53-.69zm931.41-109.66c-.2 0 1.59-.09 3.38-.26a2.82 2.82 0 0 0 1-.5c-.29-.21-.55-.55-.87-.63-3.19-.82-6.45-.5-9.68-.4-.89 0-1.27.72-1 1.11a1.47 1.47 0 0 0 .87.61c1.41.07 2.85.05 6.3.07zm-17.87.07c2.13-.13 3.9-.21 5.66-.37.31 0 .59-.38.89-.58-.2-.21-.36-.54-.6-.61a14 14 0 0 0 -8.29.14c-.17.05-.23.41-.34.62zm-863.81 2.25a19 19 0 0 0 -3 .22c-.51.1-.93.7-1.39 1.07.32.19.63.55.95.56 2.21 0 4.43.06 6.65-.05.47 0 .91-.59 1.37-.91-.31-.2-.6-.53-.94-.58-1.1-.13-2.19-.2-3.64-.31zm1866.28 129.92a29.73 29.73 0 0 0 3.07-.15 4.94 4.94 0 0 0 1.73-.8 1.87 1.87 0 0 0 -.35-.94 2.61 2.61 0 0 0 -2.53-1.35 4.36 4.36 0 0 0 -.95.46c-.64.29-1.27.6-1.92.86s-1.38 1-1.07 1.23a5.44 5.44 0 0 0 2.02.69zm-1307.34-18.86a11.91 11.91 0 0 0 2.58 0 6.67 6.67 0 0 0 1.69-1c-.61-.33-1.21-.9-1.84-.94a30.25 30.25 0 0 0 -4.36.13 1.28 1.28 0 0 0 -.9.55c-.24.41.19.91 1.07 1.12a10.34 10.34 0 0 0 1.76.14zm-296-2.43h2.11a2.66 2.66 0 0 0 1.1-.09 11.66 11.66 0 0 0 1.47-1c-.31-.2-.61-.54-.94-.57-1.1-.12-2.21-.16-3.32-.17-1.59 0-3 .7-2.53 1a9.6 9.6 0 0 0 2.16.83zm633.64-110.86a24.1 24.1 0 0 0 3.18 0 7.17 7.17 0 0 0 1.88-.77 5.31 5.31 0 0 0 -1.63-.91 21 21 0 0 0 -3.18-.14c-1.38 0-2.82.8-2.17 1.14a13.23 13.23 0 0 0 1.92.68zm150.06 1.59c-.72 0-1.8 0-2.88 0a2.51 2.51 0 0 0 -1 .22 4.8 4.8 0 0 0 -.86.64c.25.22.49.59.77.64 1.4.24 2.8.45 4.21.56 1.2.09 2.56-.92 2.08-1.43a2.14 2.14 0 0 0 -2.32-.63zm306.93 2.65c-.29.21-.83.44-.81.61.14 1.41 2.07 2.91 3.77 2.95a1.47 1.47 0 0 0 .92-.39.82.82 0 0 0 .2-.75c-.85-1.66-2.05-2.74-4.08-2.42zm39.22 0c-.65.15-1.29.39-1.93.6a6.22 6.22 0 0 0 .72 1.66c1.23 1.47 2.16 1.51 3.33.14a7.07 7.07 0 0 0 .83-1.7c-.63-.23-1.25-.51-1.9-.69a2.19 2.19 0 0 0 -1.05.03zm-1105 105.31a16.33 16.33 0 0 0 -3-.43 5.85 5.85 0 0 0 -1.88.8 7.75 7.75 0 0 0 1.73 1 3.23 3.23 0 0 0 3-.55c.11-.04.07-.34.16-.78zm331.76 4c-.36-.53-.61-1.34-1.11-1.54a2.66 2.66 0 0 0 -1.94.29c-.61.32-.18 1.26 1.07 2.31a1.36 1.36 0 0 0 1 .39 1.27 1.27 0 0 0 .99-1.41zm1251.96-96.87a4 4 0 0 0 1.05-.09c.65-.25 1.26-.6 1.88-.91-.58-.37-1.13-.78-1.74-1.09a2.6 2.6 0 0 0 -1.05-.14c-1.23 0-2.59 1-2 1.4a8.65 8.65 0 0 0 1.86.83zm-787.18-15.22a16.08 16.08 0 0 0 -2.31 1.33c-.21.16 1.59 1.16 2.65 1.18a2.39 2.39 0 0 0 1-.12 15.85 15.85 0 0 0 1.65-1.05 19.74 19.74 0 0 0 -1.66-1.09 5 5 0 0 0 -1.33-.25zm763.46 130.45a15.67 15.67 0 0 0 2.17 0 1.24 1.24 0 0 0 .86-.58c.22-.42-.2-.93-1.06-1.12a5.06 5.06 0 0 0 -2.12 0 6.87 6.87 0 0 0 -1.69.89c.62.25 1.25.54 1.84.81zm-1051.41-136a1.43 1.43 0 0 0 -1.82-.7c-.3.09-.74.46-.75.71 0 .69.54 1 1.36 1s1.44-.43 1.21-.97zm225.42 4.18a1.31 1.31 0 0 0 -.49 1.7c.39.95 1 1 1.44.11.21-.47-.09-1.16-.25-1.74a.84.84 0 0 0 -.7-.03zm11.65 2.18a3.28 3.28 0 0 0 -.79-.67 1.76 1.76 0 0 0 -1-.06 1.29 1.29 0 0 0 -.8.56c-.23.54.19.94 1 1a1.39 1.39 0 0 0 1.59-.83zm65.77-.09c-.79-.06-1.34.21-1.37.82 0 .21.5.65.72.62a3.35 3.35 0 0 0 1.81-.57c.29-.25-.32-.79-1.15-.87zm265.23 2.71a1.4 1.4 0 0 0 -1.79-.61c-.31.1-.8.43-.78.61.06.64.62.95 1.42.92s1.34-.4 1.15-.92zm54.46 1.39a8.55 8.55 0 0 0 1.72-.84c-.51-.34-1-.92-1.55-.94s-1.55.53-1.55.82a1.09 1.09 0 0 0 1.33.96zm136.11.93a1.27 1.27 0 0 0 1.71-.6c.17-.45-.51-.83-1.28-.82s-1.27.33-1.14.86c.01.23.38.46.66.56zm91.18 2a2.84 2.84 0 0 0 -.79-.62 1.71 1.71 0 0 0 -1.05 0c-.32.11-.79.45-.78.68 0 .67.59 1 1.42 1s1.22-.44 1.15-1.06zm31.21 2.52c-.23-.22-.43-.53-.71-.64a1.54 1.54 0 0 0 -.95 0 1.17 1.17 0 0 0 -.74.51c-.19.51.21.86 1 .93a1.19 1.19 0 0 0 1.35-.8zm-1664.96-9.06a3.26 3.26 0 0 0 -1 .17c-.22.11-.36.39-.54.6.26.21.54.62.78.6a3.59 3.59 0 0 0 1.81-.52c.39-.24-.17-.76-1.05-.85zm41.42.89a3 3 0 0 0 -.76-.63 1.78 1.78 0 0 0 -1 0 1.34 1.34 0 0 0 -.79.5c-.2.46.24.9 1.06.84a4.22 4.22 0 0 0 1.53-.71zm220.58 106.35a2.92 2.92 0 0 0 -.74-.6 1.71 1.71 0 0 0 -1 0 1.37 1.37 0 0 0 -.79.48c-.33.56.76 1 2 .71.22-.09.35-.38.53-.59zm-314.91.67a1.69 1.69 0 0 0 1 0c.31-.11.78-.43.77-.63 0-.64-.59-.94-1.4-.89s-1.33.41-1.14 1a1.23 1.23 0 0 0 .76.52zm-74.38.51a4.16 4.16 0 0 0 -1.83-.4c-1.11.23-1.15.89-.08 1.24a4 4 0 0 0 1.87-.24 1.12 1.12 0 0 0 .03-.6zm1925.45 17.32a8.59 8.59 0 0 0 -1.85-.39c-.28 0-.57.34-.86.53.24.25.46.7.71.71a6.54 6.54 0 0 0 1.86-.23c.1-.02.15-.62.14-.62zm103 3.12c-.29-.24-.51-.54-.81-.64a1.81 1.81 0 0 0 -1 0c-.29.08-.7.25-.79.49-.19.46.27.89 1.08.83a4.54 4.54 0 0 0 1.52-.68zm15.54 0a1.38 1.38 0 0 0 -1.78-.58c-.31.1-.8.41-.79.59 0 .59.59.88 1.39.86s1.41-.4 1.18-.87zm11.09-.28-.48.64.82.09zm-4.46 0-.48.64.83.1zm-2019.23-20.1-.4.55.67.09zm-40.29-.3-.44.54.73.1zm237 .42.39-.51-.6-.1zm-67.1-.46.43-.55-.7-.1zm-44.71-1.12-.44.49.7.11zm-18 .82.45-.63-.76-.08zm-122.07-93.1-.4.52.65.1zm185.6-13.4.43-.5-.68-.12zm1813.65 11-.48.61.8.1zm-163.8-3.1.66.38.08-.61zm-8.49.4.45-.57-.72-.11zm-250.43-6.17.45-.68-.75-.08zm-344.22-3.66-.43.52.73.1zm-116.81-.65.65.41.09-.66zm-436.09-3.42.64.4.09-.64zm309 .76.49-.63-.81-.1zm-4.34-.92-.48.55.8.11z"/><path d="m216.08 21.47c-3.08-.14-7.88-.35-12.67-.6-.25 0-.48-.35-.72-.54.25-.26.49-.73.77-.76 1.75-.16 2.93-2.43 5-1.3s3.29-1.21 5.17-1 3.71-.1 5.41.84c.32.18.67.32 1 .52 1.46.94 2.78.45 4.1-.34.31-.19.84-.53 1-.43 2.52 1.93 5.68 1.31 8.46 2.18.28.08.48.41.72.62-.32.18-.64.51-1 .52-5.17.09-10.32.17-17.24.29z"/><path d="m1665.85 21.75c-4.38-.14-8.77-.27-13.16-.45-.31 0-.61-.38-.92-.58.53-.29 1.06-.83 1.58-.82q13.19 0 26.36.23c.45 0 .88.61 1.32.94-.3.21-.6.6-.9.6-4.76 0-9.51-.05-14.27-.08z"/><path d="m251 19.53c-3.61 2.34-7.59 2.15-11.61 1.72a3.9 3.9 0 0 1 -1-.41 8.66 8.66 0 0 1 1-1.69 4.28 4.28 0 0 1 1.77-1.23 17.52 17.52 0 0 1 7.59-.31 2.34 2.34 0 0 1 1.95 2.24z"/><path d="m149.09 20.78c-1-.11-2.48-.23-3.92-.42-.27 0-.51-.31-.76-.48.31-.2.59-.54.92-.59a35.12 35.12 0 0 1 9.82.18c.3 0 .56.37.84.56-.33.17-.65.47-1 .49-1.81.12-3.64.17-5.9.26z"/><path d="m2231.88 32.87c-.62-.12-1.67-.29-2.69-.56a.93.93 0 0 1 -.6-.64 1.59 1.59 0 0 1 .45-1c2.33-2.47 3.56-2.48 6.26 0 .25.22.57.78.47.9a3.15 3.15 0 0 1 -1.32 1.15 11.54 11.54 0 0 1 -2.57.15z"/><path d="m274.68 20.87c-.25.19-.46.48-.74.55-2.2.55-4.29.37-5.94-1.35a2.81 2.81 0 0 1 -.42-1.72c0-.18.54-.51.87-.56a5.66 5.66 0 0 1 5.73 2.13 5.7 5.7 0 0 1 .5.95z"/><path d="m121.34 16a12.15 12.15 0 0 1 -2.18-.05 4.58 4.58 0 0 1 -1.29-.8 3.47 3.47 0 0 1 1-.38c2.19 0 4.37 0 6.56.07.42 0 .83.51 1.25.78a3 3 0 0 1 -1 .43c-1.45 0-2.91 0-4.36 0z"/><path d="m250.67 19.85c2.22 0 4.44 0 6.65.16.45 0 .87.61 1.3.94-.34.16-.67.45-1 .45-1.83 0-3.67-.07-5.5-.24-.71-.07-1.09-.79-1.17-1.63z"/><path d="m1605.12 20.18c-.11.21-.2.59-.33.6a7.88 7.88 0 0 1 -1.88 0c-.17 0-.47-.55-.42-.63.2-.25.56-.61.8-.57a10.22 10.22 0 0 1 1.83.6z"/><path d="m2152.78 28.72a.77.77 0 0 1 -.27.64 7.57 7.57 0 0 1 -1.78 0c-.15 0-.43-.51-.36-.62a1.52 1.52 0 0 1 .74-.63 1.27 1.27 0 0 1 1.67.61z"/><path d="m106.83 15.16c-.46.23-.89.64-1.29.61a4.46 4.46 0 0 1 -1.41-.68 12 12 0 0 1 1.82-.44c.25-.02.54.35.88.51z"/><path d="m2222.2 31.16.31.73-.75-.09z"/><path d="m1703.34 21.39-.28-.6.72.1z"/><path d="m1609.83 20.31-.69.15.09-.5z"/></g></svg>