<?xml version="1.0" encoding="utf-8"?>
<!-- Generator: Adobe Illustrator 23.0.5, SVG Export Plug-In . SVG Version: 6.00 Build 0)  -->
<svg version="1.1" id="Layer_1" xmlns="http://www.w3.org/2000/svg" xmlns:xlink="http://www.w3.org/1999/xlink" x="0px" y="0px"
	 viewBox="0 0 2560 40" style="enable-background:new 0 0 2560 40;" xml:space="preserve">
<style type="text/css">
	.st0{clip-path:url(#SVGID_2_);}
	.st1{fill:#300600;}
</style>
<g>
	<defs>
		<rect id="SVGID_1_" width="2560" height="40"/>
	</defs>
	<clipPath id="SVGID_2_">
		<use xlink:href="#SVGID_1_"  style="overflow:visible;"/>
	</clipPath>
	<g class="st0">
		<path class="st1" d="M2198.4,32.7c0.7-3.7,0.9-4,3.8-4.1h1.1c0,0,0.7,0,1.1,0c2.3,0,3,1.1,2.1,3.7c-0.2,0.3-0.3,0.7-0.4,1
			c0,0.3,0.1,0.8,0.3,0.8c0.7,0.1,1.6,0.4,2.1,0.1c1.7-1,1.7-3.2,3.2-4.4c0.7-0.5,1.3-0.8,1.8-0.4c0.3,0.2,0.5,0.6,0.6,0.9
			c0.1,0.7,0.1,1.5,0.2,2.2c0.1,1.1,1.2,2.3,2,2.3c2.6,0.1,5.2,0.1,7.8,0.1c6.7,0,13.4,0.1,20.1,0.1c1.6,0,2.9-0.7,2.6-1
			c-0.5-0.5-1.1-0.9-1.8-1.2c-0.3-0.2-0.6-0.4-0.8-0.7c-0.7-0.7-0.3-2.6,0.6-2.8c1.4-0.4,2.8-0.7,4.3-0.9c5.6,0,11.2,0.1,16.8,0.2
			c21.2,0.2,42.5,0.5,63.7,0.7c8.6,0.1,17.1-0.1,25.7-0.1c1.1,0.1,2.2,0,3.3-0.4c3.2-1.6,6.5-1.2,9.9-1.2c10.4,0,20.9-0.3,31.3-0.1
			c3.7,0.1,7.2-1.8,10.9-0.9c3.6-1.4,7.4-0.9,11.1-1c7.8-0.1,15.6-0.1,23.5-0.2c3.3,0,6.7-0.3,9.9-1.1c3.1-0.9,6.6-0.6,10-0.6
			c6-0.1,11.9-0.1,17.9-0.1c1.5,0,3.1,0.3,4.4-0.3c4-1.7,8-1.3,12.1-1.3c9.3-0.1,18.6-0.2,27.9-0.4c0.7,0,1.5,0,2.2-0.1
			c13.7-1.6,19.2-1.9,31-1.4c2.5,0.1,2.7,1,1.7,3.9c-0.6,1.7-0.5,1.7,0.7,2.6c0.6,0.4,1.3,0.7,1.9,1.1c1.3,0.8,2.1,2.1,2.3,3.6
			c0,2.2-0.1,4.5,0,6.7c0.4,7.2,0.4,5.5-2.6,11.7c-1,2-1.6,4.1-1.6,6.3c0,1.1-0.1,2.2,0,3.3c0.1,1.9-0.7,3.7-2,5
			c-0.5,0.6-0.9,1.1-1.3,1.8c-1.2,1.5-1.4,3.5-0.4,5.2c0.3,0.6,0.6,1.3,0.8,2c0.2,0.7-0.1,1.5-0.8,1.9c-1.3,0.7-2.7,1.1-3.1,2.8
			c-0.3,1.5,0,3,0.8,4.2c1,1.7,1.4,3.6,0.4,5.3c-1.7,3-1.7,6.4-3.2,9.4c-0.8,1.7-0.6,3.7,0.4,5.4c0.4,0.6,0.3,1.4-0.2,2
			c-1.4,1.7-2.7,3.6-3.8,5.5c-1,2-1.9,4-1.6,6.3c0.2,1.5-0.7,2.8-1.3,4.1c-1.1,2.7-2,5.5-2.8,8.3c-0.1,0.7,0,1.5,0.4,2.1
			c1.5,2.5,1.2,4.8-0.3,7.3c-1.8,2.8-2.8,6.1-2.9,9.4c-0.2,1.5-0.7,2.9-1.5,4.1c-0.7,1.3-0.6,2.9,0.2,4.2c1.6,3.3,1.5,6.5-0.9,9.4
			c-1.8,1.9-2.8,4.4-2.8,7.1c0,1.9-1,3.5-1.9,5.1s-1.5,3.4-2.2,5c0.6,4-2,7-3.3,10.4c-0.3,0.6-0.4,1.3-0.3,2
			c0.7,1.6,0.1,2.8-0.7,4.1s-1.4,2.6-3,3c-1.4,0.4-2.8,0.9-4.2,1.4c-2.8,1.1-5.9,1.1-8.7-0.1c-2.7-1.3-5.9-1.4-8.6-0.2
			c-2.1,0.7-4.3,1.1-6.6,0.9c-10.1,0.1-20.1,0.2-30.2,0.3c-2.2-0.2-4.5,0.2-6.5,1c-1.4,0.5-2.9,0.7-4.4,0.6c-4.8,0.1-9.7,0-14.5,0.1
			c-3.7,0.1-7.5-0.4-11,1.3c-4.1,0.2-8.2,0.5-12.3,0.6c-7.1,0.1-14.2,0.1-21.2,0.2c-3,0-5.9-0.1-8.8,1c-1.7,0.6-3.7,0.4-5.5,0.5
			c-18.6,0.1-37.2,0.2-55.9,0.3c-2.6,0-5.2-0.1-7.6,1.1c-1.4,0.7-2.9,0.2-4.3-0.4c-8.1,1.3-16.3,0.7-24.4,0.7
			c-14.9,0-29.8-0.2-44.7-0.4c-8.9-0.1-17.9,0-26.8-0.2c-4.1-0.1-8.2,0.3-12.1-1.1c-0.9-0.3-2.1,0.7-3.2,0.7c-1.5,0-3-0.2-4.4-0.7
			c-2.1-0.9-4.4-0.9-6.5-0.2c-0.7,0.3-1.4,0.3-2.1,0.2c-8.1-2-16.3-1-24.5-1.1c-21.2-0.4-42.5-0.4-63.7-0.6
			c-22.7-0.3-45.4-0.7-68.2-1c-2.9-0.1-5.9,0-8.8-1.2c-2.4-1-5.1-0.5-7.6,0.4c-1,0.5-2.1,0.5-3.2,0.2c-2.8-1.5-5.8-1.2-8.7-1.2
			c-16.4-0.2-32.8-0.4-49.2-0.6c-14.2-0.2-28.3-0.5-42.5-0.5c-21.2-0.1-42.4,0.1-63.7-0.1c-7.4-0.1-14.9,0-22.3,0
			c-14.9-0.2-29.8-0.3-44.7-0.4c-2.6,0-5.2-0.1-7.7,0.9c-1,0.4-2.2,0.3-3.2-0.1c-2.4-1.1-5.1-1.2-7.6-0.2c-2.8,1.1-5.9,1.1-8.7-0.1
			c-1.9-0.8-3.6-0.3-5.3,0.4c-1.1,0.4-2.2,0.4-3.2-0.1c-3-1.5-6.6-1.6-9.7-0.3c-0.7,0.1-1.4,0.1-2.1,0c-2.6,0-5,0.8-7.6,0.8
			c-20.5-0.1-41-0.1-61.5-0.2c-8.6,0-17.1-0.1-25.7-0.2c-30.9-0.3-61.8-0.6-92.8-0.9c-2.3,0-4.5,0-6.6-0.9c-0.6-0.4-1.4-0.4-2.1-0.1
			c-2.1,1.1-4.3,0.8-6.6,0.8c-7.8,0-15.7,0-23.5-0.1c-3.3,0-6.7,0.1-9.8-1.4c-0.8-0.4-2.1,0.2-3.2,0.6c-2.1,0.8-4.5,0.8-6.5-0.2
			c-2-1.1-4.4-1.1-6.4-0.1c-2.1,1-4.4,1-6.5,0.1c-1-0.4-2.2-0.4-3.2-0.1c-1.4,0.4-2.7-0.6-4.3-0.1c-3.6,1.2-7.4,1-10.9-0.3
			c-1.4-0.6-2.9-0.6-4.3,0c-0.6,0.4-1.4,0.6-2.1,0.7c-2.6,0-5.3,0.4-7.8-0.4s-4.6,0.9-6.4,0c-2.5-1.2-5.1,0.6-7.5-0.9
			c-1-0.5-2.2-0.6-3.2-0.3c-2.2,0.8-4.2,1.1-6.4,0c-0.6-0.3-1.5,0-2.2-0.2c-3.3-0.7-6.5,1.2-9.8,0.4c-3.3-0.6-6.6-0.9-10-0.8
			c-3.3,0-6.7,0-10,0s-6.7-0.2-10-0.3s-6.7,0.1-10.1,0.1c-15.6-0.1-31.3-0.3-46.9-0.5c-22.4-0.2-44.7-0.5-67.1-0.7
			c-6-0.1-11.9-0.3-17.9-0.3c-2.6,0-4.9-1.8-7.6-0.6c-1.3-0.7-2.9-0.6-4.2,0.2c-0.7,0.3-1.4,0.4-2.2,0.4c-1.9,0.2-3.4-1.5-5.3-1.1
			c-1.4,0.4-2.9,0.7-4.3,0.9c-1.9,0.3-3.8,0-5.4-0.9c-1.5-0.8-2.8-0.4-4.3,0.1c-1.9,0.6-3.5-1.5-5.3-0.6c-2.1,1-4.1,1.5-6.3,0.2
			c-1-0.5-2.1-0.7-3.2-0.7c-4.1-0.1-8.2,0-12.3,0c-1.5,0.1-3,0.4-4.3,1c-2.1,0.8-4.4,0.7-6.5-0.1c-1.4-0.4-2.9-0.7-4.3-0.9
			c-3-0.6-5.9,1.4-8.7,0.6c-2.9-0.7-5.9-1-8.8-1c-3-0.1-6-0.1-8.9-0.1l-63.7-0.6c-3,0-6,0.1-8.8-1.2c-0.5-0.2-1.4,0.1-2.1,0.4
			c-1.7,0.7-3.7,0.8-5.4,0.1c-2.1-0.8-4.3-1.2-6.5-1.2c-1.9-0.2-3.7,0.1-5.4,0.9c-1.7,0.8-3.6,1-5.4,0.7c-2.2-0.3-4.3-1.3-6.5-1.2
			c-1.7,0.1-3.4,1.1-5.4,1.1c-4.8-0.1-9.7-0.1-14.5-0.1c-1.9-0.1-3.7-0.6-5.4-1.3c-1.4-0.6-3-0.5-4.3,0.1c-2.1,1.1-4.3,0.9-6.5,1.3
			c-3.4,0.6-6.3-2.7-9.7-1.2c-2.9,1.3-5.9,0.7-8.8,0.7c-1.9,0-3.7-0.3-5.5-0.8c-4.3-1-8.7-1.5-13.1,0c-2.8,1-5.9,0.9-8.7-0.2
			c-1.3-0.7-2.9-0.7-4.3-0.1c-2,1.1-4.4,1.1-6.5,0.2c-3.6-1.7-7.3-1.1-11-1.1c-1.8,0-3.5,1.6-5.4,0.6s-3.6,0-5.3,0.5
			c-0.7,0.2-1.5,0.3-2.2,0.1c-5.8-2-11.7-1.7-17.6-0.5c-0.6,0.1-1.4-0.3-2.1-0.4c-1.5-0.2-2.9-0.3-4.4-0.4c-2.8,1.8-5.6,0.8-8.5,0
			c-2.9-0.9-6-0.7-8.8,0.4c-2.1,0.9-4.4,1-6.5,0.1c-1.8-0.8-3.7,0.7-5.4-0.3c-7.7,1.8-15.5,0.7-23.3,0.8
			c-11.9,0.2-23.8-0.1-35.7-0.2l-79.3-0.6L692,192c-20.5-0.1-41-0.3-61.5-0.4c-14.2-0.1-28.3,0-42.5-0.1
			c-11.5-0.1-23.1-0.2-34.6-0.3c-9.7-0.1-19.4-0.1-29-0.1c-1.5-0.1-3,0.2-4.3,0.8c-2.6,1.3-5,0.6-7.5-0.3c-1.4-0.6-2.9-0.7-4.3-0.3
			c-2.8,1-5.8,1.4-8.8,1.2c-17.1-0.1-34.3-0.3-51.4-0.3c-23.5-0.1-46.9,0-70.4-0.1c-15.3,0-30.5-0.2-45.8-0.3
			c-3.3,0-6.7-0.3-9.9,1.2c-0.7,0.3-1.5,0.2-2.2-0.1c-1.8-1.1-3.6,0.4-5.3-0.4c-2.8-1.3-5.9-1.5-8.8-0.6c-5.1,1.5-10.3,1.3-15.5,1.3
			c-21.2,0-42.4-0.1-63.7-0.1c-3.7,0-7.4-0.5-11.1,0.9c-0.7,0.2-1.4,0.1-2.1-0.2c-2.8-1.1-5.9-1-8.7,0.1c-0.7,0.3-1.5,0.2-2.1-0.1
			c-3.2-1.2-6.7-1-9.8,0.3c-1.7,0.7-3.7,0.7-5.4-0.1c-3.1-1.4-6.6-1.5-9.8-0.1c-1.4,0.5-2.9,0.5-4.3-0.1c-0.3-0.1-0.8-0.4-1-0.4
			c-6.2,1.9-12.5,1.2-18.8,0.1c-1.1-0.2-2.2-0.1-3.2,0.3c-1.8,0.6-3.7,0.6-5.5-0.1c-1.7-0.7-3.5-1.1-5.4-1.1
			c-11.2-0.1-22.3-0.3-33.5-0.4c-6-0.1-11.9-0.3-17.9-0.6c-1.5-0.1-2.9-0.4-4.3-0.9c-1.4-0.5-2.9-0.4-4.3,0.1
			c-1,0.4-2.1,0.5-3.2,0.2c-3.2-1.4-6.5-1.4-9.9-1.6c-4.4-0.2-8.9,0.2-13.2-1.7c-1.6-0.7-3.7-0.4-5.5-0.6c-3.3,0-6.6-0.5-9.8-1.5
			c-2.7,1.7-5,0-7.3-0.9c-1-0.4-2.2-0.4-3.2-0.8c-2.4-1.1-5-1.6-7.6-1.6c-3.4,0-6.5-1.3-9.7-2c-3-0.7-5.5-2.2-8-3.7
			c-1.3-0.7-2.3-1.9-2.6-3.4c-0.8-3.9-2.8-7.7-2.1-11.9c0-1.1-0.2-2.2-0.8-3.2c-0.7-1.7-1.2-3.5-1.2-5.4c-0.2-3.7,0.1-7.4-1.3-11
			c-0.1-0.3-0.3-0.8-0.2-1c2.2-3.6,1.2-8,2.7-11.9s2-7.8,4.6-11.1c1.5-1.8,1.6-4.3,0.4-6.2c-0.8-1.3-1.3-2.7-1.5-4.1
			c-0.3-2.9,0.7-6-1.4-8.6c-0.1-0.1,0.2-0.7,0.4-1c1.1-1.6,1-3.7-0.2-5.2c-1.2-1.4-1.4-3.5-0.5-5.2c1.1-1.9,1.7-4.1,1.6-6.3
			c0-2.2,0-4.4,0.2-6.7c0.2-1.9-0.5-3.7-2-4.9c-1.5-1.1-2.3-2.9-2.3-4.8c0-2.2-0.1-4.5-0.1-6.7c0-2.6,0-5.1-1.4-7.5
			s-0.6-5.1-0.7-7.7c-0.1-0.4,0-0.7,0.2-1.1c3.4-3.8,1.4-8.5,2-12.8c0.1-0.4,0-0.8,0.2-1.1c0.4-0.6,0.9-1.3,1.5-1.5
			c2.2-0.4,4.4-0.7,6.4-1.8c0.9-0.5,2.2-0.3,3.3-0.3c0.7,0,1.5,0.1,2.2,0.3c4.2,1.4,8.4,3.1,12.7,3.8c4,0.7,8.2,0.2,12.1,1.6
			c1.1,0.4,2.1-0.4,3.1-0.8c1.1-0.3,2.2-0.5,3.3-0.6c0.3,0.6,0.6,1.4,1,1.6c2,0.7,4.2,0.8,6.2,0.1c0.3-0.1,0.5-0.4,0.7-0.6
			c-0.3-0.2-0.5-0.6-0.8-0.6c-2.5-0.1-4.9-0.2-7.4-0.3c-0.3-2.3-2.2-4-4.5-4.3c-3.6-0.7-7.4-0.4-10.8-2.3c-1.2-0.6-2.9-0.3-4.4-0.4
			c-2.6-0.1-5.2-0.6-7.6-1.5c-1.7-0.6-3.6-1-5.4-1c-3.8-0.2-7-2.1-10.6-3.2c-1.8-0.6-3.1-2.3-3.3-4.2c0-0.7,0.2-1.4,0.5-2.1
			c0.3-0.8,1-0.8,1.8-0.4c4,2,8.1,3.8,12.7,3.6c4.2,1.7,8.6,2,13.1,2.2c0.7,0,1.5,0.1,2.1,0.5c3.1,1.8,6.5,1.5,9.8,1.8
			c2.6,0,5.2,0.5,7.6,1.4c1.4,0.5,2.9,0.7,4.4,0.7c2.5,0.2,4.7-1.7,7.5-0.1c2.2,1.3,5.2,0.4,7.5,1.7c1.4,0.6,2.9,0.6,4.3-0.1
			c0.3-0.1,0.8-0.4,1.1-0.3c6.4,2.5,13.3,1.1,19.9,1.7c4.8,0.5,9.6-0.3,14.3,1.5c2,0.8,4.4,0.4,6.7,0.4c12.7,0.2,25.3,0.3,38,0.5
			c17.9,0.2,35.7,0.3,53.6,0.5h17.9c1.1,0.1,2.2,0.1,3.3-0.2c3.9-1.8,8-1.4,12.1-1.2s8.2-0.7,12.2,0.8c0.7,0.3,1.5,0.3,2.1,0
			c2.5-1,5.2-0.5,7.7-0.9c3-0.4,5.6,2,8.6,0.7c2.5-1,5.1-0.6,7.7-0.6c3,0,6-0.1,8.9-0.1l7.8-0.1c3,0,6,0,8.9-0.1
			c0.7,0,1.5-0.1,2.2-0.3c0.7-0.2,1.2-0.8,1.3-1.5c0.2-0.9,0-1.5-0.9-1.8c-2.8-1-5.9-1-8.7,0c-1.4,0.5-2.6,1-4.1,0.1
			c-2-1.3-4.4-0.3-6.5-1c-0.3-0.1-0.6-0.5-0.9-0.7c0.4-0.4,0.9-1.2,1.3-1.2c4.1-0.1,8.2-0.1,12.3-0.1c3,0,5.9,0.1,8.7-1.3
			c2.1-1,4.4-0.6,6.6-0.6c11.9,0,23.8,0,35.7-0.1c1.8-0.1,3.7-0.3,5.5-0.7c1-0.3,2.2-0.3,3.2,0c4.3,1.6,8.8,1.3,13.3,1.2
			c16.8-0.3,33.5,0.5,50.2,0.5c3.7,0,7.5-0.6,10.9,1.3c3.1-1.6,6.5-1.3,9.8-1.3c6-0.1,11.9-0.1,17.9-0.1c4.4,0,8.9,0.6,13.2-1.3
			c0.7-0.2,1.5-0.1,2.1,0.3c1.5,0.7,2.8,0.2,4.3-0.2c2.5-0.7,5.2-0.6,7.6,0.5c1.3,0.7,2.9,0.7,4.2,0.1c1.7-0.7,3.6-1.1,5.5-0.9
			c16.4,0.1,32.8,0.3,49.2,0.3c24.9,0.1,49.9,0.2,74.8,0.2c1.5,0,2.9-0.2,4.4-0.6c1-0.3,2.2-0.3,3.2,0.1c1,0.4,2.1,0.6,3.2,0.7
			c5.6,0.1,11.2,0,16.8,0.2c2.2,0.1,4.2-1.8,6.5-0.8c1.8,0.6,3.6,0.9,5.5,0.8c2.6,0,5.2,0.1,7.8,0.1c18.3,0.3,36.5,0.6,54.7,0.8
			c11.5,0.1,23.1,0.2,34.6,0.3c2.6,0,5.2,0,7.6-1.4c0.5-0.3,1.4,0.1,2,0.5c2,1,4.4,0.9,6.4-0.2c2-1.1,4.4-1.1,6.4-0.1
			c3.8,1.7,8.1,1.7,11.8,0c3.1-1.5,6.8-1.1,9.5,0.9c1,0.6,2.2,0.6,3.1-0.2c2.3-1.6,4.7-2.1,7.3-0.5c0.7,0.4,1.3,0.2,2,0
			c2.4-0.9,4.9-1.5,7.4-2.3c2.8,0.9,5.7,1.6,8.4,2.7c2.1,0.9,4.4,0.9,6.5,0c1.3-0.6,2.8-1,4.3-0.9c8.2,0.4,8.2,0.4,13.8-1.4
			c3.1-1,5.8-0.8,8.2,1.6c1.8,2.1,4.8,2.5,7.1,1c0.3-0.2,0.7-0.3,1-0.5c1-0.5,2.2-0.4,3.2,0.2c3.1,2,6.5,1.3,9.8,1.2
			c2-1.5,4.1-1,6.3-0.2c1.4,0.5,2.6-1.2,4.2-0.7c1.4,0.5,2.8,0.8,4.3,1.1c1.8,0.5,3.8,0.1,5.3-0.9c1.2-1,2.9-1,4.1,0
			c1.1,0.8,2.1,0.1,3.1-0.2c0.7-0.2,1.6-0.6,2.1-0.3c2.4,1.3,4.7,2,7.3,0.2c0.6-0.4,1.4-0.4,2.1-0.1c1.9,1.7,4.3-0.3,6.2,1
			c1.1,0.8,2.6,0.6,3.5-0.5c0.1-0.2,0.2-0.3,0.3-0.5c0.6-1.4,2-2.2,3.5-2.2c3,0,6-0.4,8.7,1.2c1,0.6,2.2,0.5,3.2-0.1
			c1-0.5,2.1-0.5,3.1-0.1c3.8,1,9.6,1.4,12,0.4c2.4-1,5-1.4,7.6-1.3c10.8,0.1,21.6,0.1,32.4,0.3c3.3,0,6.8-0.3,9.8,1.7
			c2.2,0.2,4.4,0.8,6.6-0.3c1.3-0.7,2.8-1.1,4.3-1.1c4.8-0.1,9.7-0.2,14.5-0.3c2.6-0.1,5.2,0,7.5,1.6c0.6,0.4,1.4,0.4,2.1,0.1
			c3.1-2.1,6.5-1.2,9.8-1.2c3-0.1,5.9,0.4,8.7,1.4c1.6,0.7,3.7,0.2,5.5,0.3c4.2-2.2,8.7-1.4,13.2-1.6c2.2-0.1,4.5,0.1,6.7,0
			c1.9-0.1,3.7,0.4,5.3,1.3c1.7,0.9,3.7,0.8,5.3-0.1c2-1,4.2-1.5,6.5-1.4c12.7,0.3,25.3,0.5,38,0.8c2.2,0,4.5,0,6.7-0.1
			c1.9,0,3.7-0.4,5.4-1.2c3.3-1.6,7.5-0.4,10.7-2.8c2.6,0.1,5.2,0.1,7.8-0.1c3-0.5,5.7,1.7,8.6,0.7c2.6-0.9,5.2-0.6,7.8-0.6
			c2.2-0.1,4.4,0.1,6.6,0.6c1.5,0.4,2.6,0.8,4.1,0.1c1-0.4,2.1-0.6,3.3-0.4c1.4,0.1,2.8,0.9,4.2,0.9s2.9-0.8,4.3-0.8
			c13,0,26.1,0.1,39.1,0.2c1.5-0.1,3,0.2,4.3,0.8c0.7,0.3,1.4,0.3,2.1,0c1.4-0.4,2.9-0.6,4.4-0.6c2.2,0,4.5-0.3,6.6,0.6
			c2.6,1,4.9-1.1,7.5-0.7c2.2,0.4,4.5,0.1,6.7,0.3c4,0.2,8.2-0.7,12,1.5c1.1-0.2,2.2-0.4,3.2-0.8c2.1-0.9,4.4-0.9,6.5,0.1
			c1.8,0.9,3.6,0.7,5.4,1c3.3,0.7,6.5-2.3,9.7-0.1c3,0.1,5.9,0.2,8.9,0.3c3.3,0.1,6.7,0.1,10,0.1c1.9,0,3.7,0.2,5.5-0.6
			c1-0.5,2.2-0.5,3.2-0.1c2.8,1.2,5.8,0.9,8.8,1l35.8,0.3c21.6,0.2,43.2,0.4,64.8,0.6c2.6,0,5.2,0,7.6,1.3c1.1,0.4,2.3,0.3,3.3-0.3
			c3.1-1.3,6.7-1.2,9.7,0.4c1.3,0.7,2.9,0.9,4.3,0.3c4-1.7,7.8-2,11.8-0.2c1.7,0.8,3.7,0.7,5.4-0.2c2-1.1,4.4-1.2,6.4-0.3
			c2.7,1.3,5.8,1.5,8.7,0.5c1.4-0.4,2.9-0.3,4.3,0.2c1.8,0.3,3.7,0.5,5.5,0.6c2.8,0.4,5.6-2.3,8.5-0.1c3.3,0.1,6.7,0.3,10,0.4
			c3,0.1,6,0.1,8.9,0.1c0.7,0,1.5,0.2,2.2,0.4c0.3,0.2,0.6,0.4,0.8,0.6c-0.3,0.2-0.6,0.6-0.9,0.6c-8.2,0.1-16.3,0.2-24.5,0.2
			c-0.8,0-1.5,0-2.2,0c-1.5,0.1-2.9,0.8-3.8,2c-0.2,0.3-0.5,0.9-0.4,1c0.4,0.5,0.9,0.9,1.5,1.2c1.5,0.3,3,0,4.2-1
			c0.9-0.7,2.3-1.4,3.1-0.7c2.2,1.8,4.1,0,6.1,0c6-0.2,11.9,0,17.9,0.1c0.7,0.1,1.4,0.4,2,0.8c1.1,0.8,2,0.3,3-0.2
			c2.1-1,4.5-0.8,6.4,0.5c1.9,1.3,4.4,1.3,6.3,0c0.9-0.6,2-0.9,3.2-0.9c4.4,0.3,8.9-0.6,13.2,1.1c1.5,0.6,3.5-0.7,5.2,0.3
			c3.4-2,7.3-0.9,10.9-1.4c1.9-0.3,3.8,0.1,5.4,1.1c1.9,1.2,4.2,1.7,6.4,1.4c5.6-0.6,11.2-0.2,16.8-0.3c2.6,0,5.2,0.3,7.5-1.3
			c0.8-0.6,2.2-0.1,3.2,0.5c1.7,1,3.6,1.6,5.3,0.7c1.6-0.9,3.6-0.9,5.1,0.1c0.7,0.2,1.5,0.2,2.1-0.2c1.5-0.9,2.6-0.4,4.1,0.1
			c2.5,0.7,5.2,1.2,7.6-0.2c1.5-1.1,3.6-1.1,5.1,0c1.3,0.7,2.8,1,4.3,0.9c6.7-0.1,13.4,0.5,20.1,0.1c2.6-0.1,5.2,0,7.8,0.2
			c2.2,0.1,4.5-0.4,6.4-1.5c1.3-0.8,2.9-0.5,4.3-0.2c4.3,0.9,6,0.4,8.3-2.8c0.5-1,1.6-1.6,2.7-1.7c1.9-0.1,3.7-0.2,5.6-0.2
			c17.1,0.2,34.3,0.4,51.4,0.5c13.4,0.1,26.8-0.1,40.2,0c16.8,0.1,33.5,0.4,50.3,0.5c7.4,0.1,14.9-0.1,22.3,0
			c12.7,0.1,25.3,0.5,38,0.6c14.9,0.1,29.8,0,44.7,0.1c11.6,0.1,23.1,0.3,34.6,0.5c2.2,0.1,4.4,0.3,6.6,0.6c0.7,0.3,1.3,0.7,1.8,1.3
			c0.8,0.8,0.9,2,0.2,2.9c-0.4,0.8-0.2,1.4,0.9,1.5c2.2,0.1,4.5,0.3,6.7,0.2c0.6,0,1.2-0.6,1.8-0.9c-0.6-0.4-1.2-0.7-1.9-1
			c-0.7-0.2-1.5-0.1-2.2-0.4c-1-0.3-1.2-0.9-0.7-1.6c0.9-1.3,2-2.3,3.6-2c1.1,0.2,2.1,0.9,3.2,0.9s2.1-1,3.2-1
			c7.4,0,14.9,0,22.3,0.2c2.1,0.1,4.2,1.4,6.3,0.1c4.5,0,8.9-0.1,13.4,0c0.7,0,1.5,0.1,2.1,0.4c2.7,1.5,5.8,1.3,8.7,1.4
			c2.6,0.1,5.2-0.1,7.8-0.1c10.8,0.1,21.6,0.3,32.4,0.5c1.5,0,3,0.6,4,1.8c0.6,0.5,0.7,1.4,0.2,2c-0.2,0.2-0.4,0.4-0.6,0.5l-1.9,1.1
			c0.3,0.6,0.7,1.2,1.1,1.8c0.9,1.3,2.6,1.7,3.9,1c2.2-1.1,4.2-1.3,6.3-0.1c0.3,0.2,0.7,0.3,1.1,0.2c0.7,0,1.5-0.2,2.1-0.5
			c2.5-1.5,4.8-1.7,7.3,0.1c1.3,0.9,2.9,0.9,4.2-0.1c0.6-0.4,1.1-1,1.7-1.4s1.3-1.1,1.9-1s0.8,1.1,1.3,1.7s1,1.4,1.6,1.4
			c4.1,0.1,8.2,0.1,12.3,0c0.9,0,1.2-0.8,1.1-1.6c-0.1-1.3-1-2.1-2.1-1.8s-2.1,1.1-3.1,1.1s-1.9-1.1-3-1.4s-2.1-0.4-3.2-0.7
			c-0.3-0.1-0.6-0.5-0.6-0.7c0.1-0.3,0.4-0.6,0.7-0.8c2.4-0.9,4.7-2.1,7.4-2.1c5.2-0.2,10.4-0.1,15.6,0.3c1.5,0.2,2.8,1.1,3.6,2.4
			c0.8,1.1,0.2,3.4-1.1,3.6c-1.8,0.3-3.7,0.4-5.5,0.7c-0.3,0-0.6,0.4-0.8,0.6c0.3,0.2,0.6,0.6,0.9,0.6c2.2,0.2,4.4,0.1,6.6,0.4
			c2.8,0.4,4.9-1.3,7.4-2.1c0,1.1,0.9,1.9,1.9,2c0.7,0.2,1.3-0.2,1.6-0.8c0-0.1-0.5-0.6-0.8-0.6
			C2200.5,32.8,2199.4,32.8,2198.4,32.7L2198.4,32.7z M1199.2,16.1c-1-0.1-2.1-0.2-3.2-0.2c-0.7,0-1.4,0.2-2,0.4
			c-0.3,0.1-0.6,0.4-0.8,0.6c0.3,0.2,0.5,0.5,0.8,0.6c3.3,0.8,3.8,0.7,5-1.8c0.7,0.3,1.5-0.1,1.7-0.8c0,0,0,0,0-0.1
			c0-0.1-0.5-0.7-0.6-0.6c-0.7,0.2-1.2,0.9-1,1.6C1199.2,16,1199.2,16,1199.2,16.1L1199.2,16.1z M60.8,31.4c0,1.1,0.9,1.9,1.9,2
			c1,0,2.1,0,3.1-0.2c0.3,0,0.5-0.4,0.7-0.6c-0.3-0.2-0.5-0.6-0.8-0.6c-1.7-0.1-3.5-0.2-5.2-0.3c-0.3-0.6-0.5-1.5-1-1.7
			c-2-0.9-4.2-1-6.2-0.3c-0.3,0.1-0.5,0.4-0.8,0.6c0.3,0.3,0.5,0.5,0.9,0.6C55.8,31.6,58.3,31.8,60.8,31.4z M1014.7,132.2
			c2.2,0.4,4.4,0.1,6.5,1.2c1,0.5,2,0.9,3.1,0.9c5.2,0.1,10.4,0,15.6-0.1c0.8,0,1.1-0.8,1.3-1.5c0.2-0.9,0-1.6-0.9-1.7
			c-7.7-1.3-15.5-0.7-23.3-0.7c-0.4,0-0.7,0.1-1,0.4c-0.4,0.6-0.7,1.1-1,1.8c-0.6,0.1-1.2,0.4-1.7,0.8c-0.6,0.6-0.3,1,0.5,0.6
			C1014.4,133.6,1014.8,132.9,1014.7,132.2L1014.7,132.2z M2057,144.8c-0.2,0.7,0.2,1.4,0.9,1.6c0.9,0.4,1.1,0,0.6-0.5
			c-0.5-0.4-1.1-0.6-1.7-0.8c-0.1-1.1-1-2-2.2-2c-7.8-0.3-15.6-0.5-23.4-0.8c-1.5,0-3-0.1-4.4-0.5c-1.5-0.5-2.7-0.9-4.2-0.1
			c-0.7,0.3-1.4,0.4-2.1,0.2c-3.1-1.5-6.5-1.6-9.8-1.4c-1.4,0.1-2.8,0.9-4.3,0.9s-2.8-1-4.3-1c-8.9-0.4-17.8-0.4-26.8-0.2
			c-0.4,0-0.7,0-1.1,0.1c-2.1,0.9-4.2,1.4-6.2-0.2c-6.3,0-12.6-1.3-18.8,0.8c-0.7,0.2-1.4,0.1-2.1-0.2c-2.8-1.1-5.9-0.8-8.8-1
			c-1.1-0.1-2.2,0.1-3.3,0.5c-5.1,2.3-10.1,1.9-15.2,0.2c-0.3-0.2-0.7-0.3-1-0.4c-3.7-0.3-7.4-0.8-11.1,0.4
			c-1.4,0.4-2.9,0.3-4.2-0.4c-1.7-0.7-3.7-0.6-5.4,0.3c-0.6,0.4-1.4,0.5-2,0.1c-1.3-0.8-2.9-0.9-4.2-0.3c-3,1.5-6.6,1.5-9.7,0
			c-0.7-0.3-1.5-0.3-2.1,0.2c-2,1.2-4.4,1.2-6.4,0.1c-3.4-1.5-7.3-1.6-10.9-0.4c-1.7,0.7-3.5,1.1-5.4,1.2c-13,0-26.1,0.2-39.1-0.2
			c-6-0.1-11.9-0.4-17.8-0.3c-2.2-0.1-4.5,0.4-6.4,1.5c-0.7,0.3-1.4,0.4-2.1,0.1c-3.5-2-7.1-1.6-10.8-1.1c-0.3,0-0.5,0.4-0.8,0.6
			c0.3,0.2,0.5,0.6,0.8,0.7c1.4,0.4,3,0,4.3,1c1.6,1,3.4,1.6,5.3,1.5l26.8,0.2c1.9,0,3.7-0.5,5.3-1.4c1.7-0.9,3.7-0.8,5.3,0.3
			c0.9,0.6,2.1,0.7,3.1,0.1c1-0.6,2.1-0.7,3.2-0.3c1.4,0.4,2.8,1.3,4.2,1.3c4.8,0.2,9.7,0.3,14.5,0.2s9.7,1.2,14.3-0.9
			c0.5-0.2,1.4,0.2,2.1,0.4c1.7,0.7,3.7,0.7,5.4,0.1c0.7-0.3,1.6-0.8,2-0.6c3.9,1.9,8.1,0.9,12.1,1.3c1.9,0.1,3.7-0.4,5.4-1.2
			c1.7-0.8,3.7-0.8,5.3,0.2c1.2,0.8,2.8,1,4.2,0.5c3.8-1.6,8.1-1.6,11.9,0c2.1,0.9,4.4,0.9,6.5,0c2.7-1.3,5.9-1.4,8.7-0.3
			c0.3,0.1,0.7,0.4,1,0.4c2.5-0.4,5-1.2,7.4,0.3c0.2,0.1,0.7-0.2,1-0.4c1.3-0.8,2.9-0.8,4.2-0.1c0.3,0.2,0.7,0.3,1,0.5
			c1,0.4,2.2,0.4,3.2-0.1c3-1.6,6.6-1.6,9.6,0c2,1,4.4,1,6.4-0.1c1.3-0.8,2.9-0.8,4.2,0c1.3,0.7,2.8,1.1,4.3,1
			c4.5,0.1,8.9,0.2,13.4,0.3c3,0,6,0.3,8.6-1.5c0.4-0.1,0.7-0.1,1.1,0c1,0.4,2.1,0.7,3.1,0.9c1,0,2-1,3.2-0.4
			c1.3,0.8,2.9,0.9,4.2,0.3c1.3-0.7,2.8-1.1,4.3-1c6.6,0.4,13.4-1.3,19.8,1.6c0.4,0.1,0.7,0.1,1.1,0c4.2-2.1,8.7-1.5,13.1-1.6
			c1.9,0,3.7,0.6,5.2,1.5c1.5,0.8,2.8,0.3,4.1-0.6C2055.6,145.3,2056.3,145,2057,144.8L2057,144.8z M1687.8,144v0.3
			c3,0,6,0.1,8.9,0.1c15.6,0.1,31.3,0.1,46.9,0.2c9.3,0,18.6,0.2,27.9,0.3c1.5-0.1,2.9-0.2,4.4-0.5c0.3-0.1,0.5-0.3,0.6-0.6
			c0-0.4-0.2-0.7-0.4-1c-1-1.2-2.3-1.9-3.8-2c-5.6-0.1-11.2-0.2-16.7-0.1c-1.4,0-2.7,1.2-4.1,1.4c-3.7,0.7-7.6,1.1-11-0.3
			c-4-1.6-8-1.6-12-1.7c-3.7-0.1-7.4,0-11.2,0c-5.6,0-11.2,0-16.8,0c-1.5,0-3.2-0.2-4.4,0.4c-3.9,1.9-8,1.6-12,1.5
			c-11.5-0.1-23.1-0.2-34.7-0.2c-1.5-0.1-2.9-0.5-4.2-1.2c-1-0.5-2.1-0.8-3.2-0.8c-7.4,0-14.9-0.9-22.3-0.3c-2.6,0.2-5.2,0-7.8,0
			c-8.9-0.1-17.9-0.4-26.8-0.5c-8.2-0.1-16.4,0.1-24.6-0.1c-11.5-0.3-23.1-0.4-34.6-0.4c-14.2,0-28.3-0.2-42.5-0.3
			c-1.5,0.1-3-0.1-4.3-0.6c-4.3-2.1-8.5-1.7-13-0.5c-4.3,1.1-8.7,1.8-13.1-0.2c-1.7-0.8-3.6,1.2-5.2-0.3c-5.8,2-11.7,1.3-17.6,1.2
			c-3-0.1-6-0.1-8.9-0.1l-26.8-0.3c-2.2,0-4.4,0.1-6.6-0.9c-0.5-0.3-1.4,0-2.1,0.1c-1.4,0.4-2.9,0.6-4.3,0.8
			c-6.3,0.1-12.7,0.1-19,0.1c-1.9,0.1-3.7-0.3-5.4-1.2c-0.6-0.4-1.4-0.5-2.1-0.2c-2.4,1.2-5.2,1.1-7.5-0.1c-1-0.5-2.1-0.8-3.2-0.8
			c-3.7-0.1-7.5,0-11.2,0.1c-0.7,0-1.5,0.2-2.1,0.5c-3.4,1.7-7.4,1.6-10.7-0.2c-1.3-0.7-2.9-0.8-4.3-0.2c-3.9,1.9-7.6,2.2-11.7,0.2
			c-2.8-1.3-6-1-8.5,0.8c-0.7,0.3-1.3,0.6-2,0.9c-0.3,0.2-0.6,0.5-0.7,0.8c0,0.1,0.4,0.5,0.7,0.6c4,0.9,8.1,0.6,12.2,0.8
			c3.7,0.1,7.4,0.2,11.2,0.2c1.5,0,3,0.3,4.3,1c1.3,0.7,2.9,0.7,4.2-0.1c1.3-0.7,2.8-1.1,4.3-1c5.6,0.1,11.2,0.1,16.8,0.3
			c1.1,0,2.2,0.3,3.2,0.8c2.3,1.4,5.1,1.4,7.4-0.1c1.3-0.7,2.8-1,4.3-0.9c8.9,0.2,17.9,0.4,26.8,0.5c1.9,0,3.7,0.4,5.3,1.3
			c0.7,0.3,1.4,0.4,2.1,0.2c4.5-2.6,9.5-1.3,14.3-1.5c3.7-0.1,7.5-0.4,10.8,1.8c0.4,0.1,0.7,0.1,1.1,0c1-0.5,2.1-0.8,3.1-1
			c1,0,2,1,3.1,0.5c3.2-1.4,6.5-1.2,9.9-1.1c6,0.1,11.9,0.1,17.9,0.3c1.1,0,2.2,0.3,3.2,0.8c3.2,1.7,6.4,1.5,9.7,0.3
			c2.1-0.9,4.4-0.9,6.5,0c0.7,0.4,1.4,0.4,2.1,0.1c2.4-1.2,5.2-1.1,7.4,0.3c1.7,1,3.7,1,5.4,0.1c1.6-0.9,3.5-1.1,5.2-0.4
			c4.2,1.6,8.8,1.7,13.1,0.3c3.4-1,6.4-1.3,9.7,0.1c1.4,0.5,2.9,0.8,4.3,0.8c14.2,0.2,28.3,0.4,42.4,0.6c1.9,0,3.7-0.5,5.3-1.5
			c1-0.6,2.2-0.5,3.1,0.2c1.6,1,3.5,1.5,5.3,1.4c3.7,0,7.4,0.1,11.2,0.1c2.2,0,4.5,0.1,6.5-1.1c0.7-0.4,1.3-0.2,2,0.2
			c2.4,1.3,5.1,1.1,7.7,1.1c19.7,0.1,39.5,0.1,59.2,0.2C1672.9,143.9,1680.3,144,1687.8,144L1687.8,144z M1107.9,135.5
			c21.6,0.2,38,0.3,54.3,0.4c1.5-0.1,3,0.2,4.3,0.9c1.6,1,3.7,1,5.2-0.2c1.3-0.8,2.9-0.9,4.3-0.3c2.9,1.5,5.5,1.1,8.5,0.1
			c2.5-0.9,5.3-0.6,7.6,0.8c2.3,1.3,5,1.1,7.6,0.3c1-0.5,2.1-0.5,3.1-0.1c2.8,1.4,5.8,1.1,8.8,1.1c4.1,0,8.2-0.1,12.3-0.1
			c19.3,0.2,38.7,0.3,58.1,0.5c1.5,0,3-0.1,4.4-0.2c0.7-0.1,1.4-0.3,2.1-0.6c0.7-0.3,1.2-1,1-1.8c-0.2-0.9-0.8-1.2-1.5-0.8
			c-1.7,0.9-3.8,1.5-5.4,0.6c-3.5-1.9-7.2-1.7-10.9-1.8c-12.7-0.1-25.3-0.2-38-0.3c-3,0-6,0.1-8.8-1.3c-0.6-0.4-1.5-0.4-2.1,0
			c-1.3,0.7-2.8,1-4.3,1c-8.9-0.1-17.8-0.2-26.8-0.2c-1.8-0.1-3.6-0.6-5.3-1.4c-3.1-1.2-9.8-1-13.1,0.3c-1.7,0.7-3.5,1-5.4,0.9
			c-3-0.1-6-0.1-8.9-0.1c-2.6,0-5.2-0.2-7.8,0c-2.8,0.2-5.5-2.8-8.4-0.4c-2.1-0.6-4.2-1.5-6.3-1.7c-3.7-0.3-7.4-0.2-11.2-0.2
			c-1.5,0-3,0.2-4.4,0.6c-1.3,0.5-2.8,0.6-4.2,0.2c-4.7-1.2-9.6-0.7-14.4-0.9c-0.7,0-1.5,0.3-2.1,0.7c-1.5,1.1-3.6,1.2-5.2,0.3
			c-2.4-1.4-5-1.2-7.6-0.5c-1.4,0.4-2.6,0.9-4.1,0.2c-1.7-0.6-3.6-1-5.4-1c-4.1-0.2-8.2-0.1-12.3-0.1c-1.5,0-3,0.1-4.4,0.4
			c-0.5,0.1-1,0.9-1.3,1.5c-0.5,0.9,0.5,2.1,1.8,2.2s2.2,0.2,3.3,0.2L1107.9,135.5z M2110,143.2v0.1l-7.8-0.1c-0.4,0-0.7,0-1.1,0.1
			c-1.7,0.6-3.4,1.3-5.2,1.8c-0.3,0.1-0.8,0-1.1,0.1c-0.9,0.2-1.3,0.7-1.1,1.1c0.2,0.3,0.5,0.5,0.9,0.6c6.7,0.3,13.3,0.8,20,0.8
			c10.4,0.1,20.8-0.2,31.1-0.2c5.1,0,10.4-0.5,15.3,2c0.7,0.3,1.4,0.4,2.2,0.3c5.9,0,11.9,0.1,17.8,0c1.1,0,2.2-0.3,3.2-0.8
			c1.2-0.6,2.1,0,3.1,0.4c1.4,0.7,3,0.4,4.1-0.7c0.6-0.5,0.9-1.1,1.1-1.8c0-0.3-1-1-1.6-1c-8.1-0.2-16.3-0.4-24.4-0.4
			c-10.4-0.1-20.8,0.1-31.1-0.1c-5.9-0.1-11.9,1.1-17.4-2L2110,143.2z M942.5,130.8c-0.6-0.3-1.1-0.9-1.7-1
			c-8.2-0.2-16.3-0.4-24.5-0.5c-1.5,0.1-3-0.2-4.3-0.9c-1.8-1.2-3.4-0.7-5.2,0c-2.8,1.1-5.8,0.7-8.8,0.7c-11.8,0.1-23.7,0-35.6,0.1
			c-0.4,0.1-0.7,0.3-0.9,0.6c-0.3,0.4,0.1,1.1,1,1.2c2.2,0.2,4.5,0,6.6,0.3s3.9,2,6.1,0.2c0.4-0.3,1.5,0,2.1,0.3
			c1.2,0.9,2.9,0.9,4.1,0c1-0.6,2.2-0.6,3.1,0.1c0.5,0.4,1.5,0.8,2,0.6c3.5-1.7,7.3-1,11-0.9c1.1,0,2.2,0.3,3.1,0.9
			c1.6,0.9,3.7,0.8,5.2-0.2c0.7-0.2,1.4-0.3,2.1-0.3c0.4,0.1,0.7,0.2,1,0.4c2.2,1.5,5.1,1.5,7.4,0.2c1.4-0.7,2.8-1.1,4.2-0.2
			c1.5,1.1,3.6,1.2,5.2,0.1c1.9-1.2,4.4-1.1,6.3,0.2c0.6,0.5,1.4,0.6,2.1,0.2c1.1-0.7,2-0.2,3.1,0.2c0.6,0.3,1.4,0.5,2.1,0.4
			c1-0.4,1.9-1,2.7-1.7C942.3,131.6,942.3,131.2,942.5,130.8L942.5,130.8z M85.3,32c-2.2,0-4.5-0.2-6.7,0c-2.6,0.2-5.1-0.9-7.7,0.3
			c-0.3,0.1-0.4,0.4-0.6,0.7c0.3,0.2,0.6,0.6,0.9,0.6c3,0.2,5.9,0.4,8.8,0.4c3.3,0.1,6.6,0.7,9.8,1.7c0.8,0.3,2-0.6,3.1-0.9
			c1-0.5,2.2-0.4,3.2,0.2c1.6,1,3.4,1.4,5.3,1.3c15.6,0.1,31.2,0.2,46.8,0.3c0.3,0,0.6-0.4,0.9-0.6c-0.4-0.4-0.8-1-1.3-1
			c-11.1-0.3-22.3-0.5-33.4-0.7c-1.8,0-3.7-0.4-5.3-1.3c-1-0.6-2.2-0.6-3.2,0c-1.3,0.7-2.7,1.3-4.2,0.5c-1.6-0.9-3.4-1.5-5.3-1.5
			C92.7,32,89,32,85.3,32z M822.3,128.8v0.1c-7-0.1-14.1-0.1-21.1-0.1c-0.7,0.1-1.4,0.2-2.1,0.5c-0.1,0-0.2,0.6-0.2,0.6
			c2.2,1.2,4.2,2.9,7,2.9h1.1c6.2-0.2,12.6,0.9,18.6-1.5c0.7-0.3,1.5-0.2,2.1,0.1c1.5,1.1,3.6,1.1,5.1,0c3.3-0.1,6.6,0,10-0.2
			c1.8,0,3.7,0.5,5.2,1.5c1.4,0.8,2.8,0.2,4.1-0.6c0.9-0.6,2.1-0.7,3.1-0.1c0.3,0.2,0.7,0.3,1,0.4c0.4,0.3,1.1,0.2,1.4-0.2
			c0.1-0.2,0.2-0.4,0.2-0.6c0.3-0.7-0.1-1.5-0.8-1.8c-2.7-1.1-5.9-0.4-8.5-2.1c-0.3-0.1-0.7-0.1-1,0.1c-4.6,2.4-9.5,0.9-14.2,1.1
			C829.8,129,826,128.8,822.3,128.8L822.3,128.8z M347.5,22.8v0.3c5.2-0.2,10.3-0.5,15.5-0.7c0.3,0,0.6-0.3,1-0.5
			c-0.3-0.2-0.5-0.6-0.9-0.7c-1.4-0.3-2.9-0.4-4.4-0.5c-12.9-0.1-25.9-0.2-38.9-0.2c-4.4,0-8.9,0-13.3,0c-0.4,0.1-0.7,0.3-0.9,0.6
			c-0.3,0.4,0.1,1,1,1.2c1.5,0.2,3,0,4.4,0.5c2.8,1,5.5,2.5,8.3,0.1c2.6-0.3,5.1-0.5,7.5,0.8c1.2,0.9,2.9,0.9,4.2,0.2
			c1.3-0.7,2.8-1.1,4.2-1C339.4,22.7,343.4,22.7,347.5,22.8L347.5,22.8z M213.7,36.3c0.6-0.3,0.5-0.5-0.2-0.6
			c-0.4-0.1-0.7-0.4-1-0.4c-11.2-0.2-22.3-0.4-33.5-0.6c-5.9-0.1-11.9,0.1-17.9,0.1c-0.4,0-0.7,0.3-0.9,0.6c-0.2,0.4,0.3,1,1.2,1.1
			c5.9,0.2,11.9,0.4,17.9,0.4c10.8,0.1,21.6,0,32.4,0C212.4,36.8,213.1,36.6,213.7,36.3z M758.4,132.4c0.7,0,1.4-0.1,2.1-0.3
			c0.7-0.2,1.3-0.6,1.8-1.1c0.5-0.5,0.9-1.1,1.2-1.8c-0.6-0.3-1.3-0.9-1.9-0.9c-10.3-0.1-20.6-0.1-30.9-0.1c-0.3,0-0.7,0.3-1,0.4
			c-0.9,0.3-1.2,0.8-1,1.7c0.2,0.7,0.4,1.4,1.2,1.5c0.7,0.1,1.4,0,2.1-0.2c0.7-0.2,1.7-0.9,1.9-0.7c1.7,1.4,3.6-0.4,5.1,0.2
			c2.4,1.1,4-1.2,6.2-1c2.5,0.2,5.2-0.2,7.5,1.2C754.7,132.2,756.5,132.6,758.4,132.4L758.4,132.4z M971.7,129.9L971.7,129.9l-6.7,0
			c-1.8,0-3.7-0.1-5.5,0c-0.7,0.2-1.4,0.5-2,0.9c0.6,0.4,1.2,1,1.8,1c7.4,0.2,14.8,0.3,22.2,0.4c2.2,0,4.5,0.1,6.7,0.2
			c1.1-0.1,2.2,0.1,3.2,0.6c2.6,1.6,4.9,0.8,7.2-0.6c0.6-0.4,1.9-0.5,1.7-1.1c-0.3-1.1-1.5-1-2.5-1.1c-2.6-0.2-5.2,0.1-7.6-1.3
			c-0.6-0.5-1.4-0.5-2.1-0.2c-2,0.9-4.3,1.3-6.5,1.1C978.3,130,975,129.9,971.7,129.9L971.7,129.9z M2223.4,150.4v0.1
			c1.5,0,3,0.1,4.4,0c1.1,0,2.2-0.1,3.3-0.2c1-0.1,1.4-0.6,1.1-1.1c-0.2-0.3-0.6-0.6-0.8-0.6c-2.7,0.1-4.8-1.9-7.4-2.1
			s-5.2-0.1-7.8-0.2c-0.4,0-0.7,0-1.1,0c-3.5-0.5-6.5,0.8-9.4,2.5c-0.2,0.2-0.3,0.4-0.4,0.7c0.2,0.3,0.6,0.5,0.9,0.6
			c1.8,0.3,3.7,0,5.3-1c1-0.6,2.2-0.6,3.1,0c1.3,0.8,2.7,1.2,4.2,1.3L2223.4,150.4z M783.4,128.3c-4.5,0.1-8.6,0.2-12.7,0.4
			c-0.3,0-1,0.4-0.9,0.5c0.1,0.6,0.3,1.3,0.6,1.8c1,1.2,2.4,1.8,3.9,1.6c1.1-0.1,2.2-0.4,3.1-0.9c1.9-1.2,4.3-1.3,6.3-0.1
			c1.3,0.7,2.8,1.4,4.2,0.5c1.9-1.3,4.2-1.1,6.2-1.8c0.3-0.1,0.5-0.5,0.7-0.7c-0.3-0.2-0.6-0.6-0.9-0.6
			C790.3,128.7,786.6,128.5,783.4,128.3L783.4,128.3z M422.2,23c1-0.1,4.7,0.5,8.3-0.2c0.3-0.1,0.5-0.4,0.7-0.6
			c-0.3-0.2-0.6-0.6-0.9-0.6c-6.9-0.6-13.9-0.7-20.9-0.2c-0.3,0-0.6,0.4-1,0.5c-0.6,0.3-0.5,0.4,0.2,0.6
			C412.3,23.4,415.9,23.3,422.2,23L422.2,23z M699.1,130c2.6-0.1,6.2-0.2,9.9-0.4c0.3,0,0.6-0.4,0.9-0.6c-0.3-0.2-0.5-0.6-0.9-0.7
			c-6.9-0.9-13.8-0.4-20.8-0.4c-0.9,0-1.3,0.7-1,1c0.2,0.3,0.6,0.5,0.9,0.5C691.5,129.7,694.8,129.8,699.1,130L699.1,130z
			 M2074.4,143.1c-0.7,0-1.3,0-2,0.1c-0.4,0-0.7,0.2-0.9,0.5c-0.3,0.4,0.1,0.9,0.9,1.3c1,0.5,1.9,0.9,2.9,1.4c1.6,0.7,3.4,1,5.2,0.9
			c1.9-0.1,3.2-1.1,2.7-2.4s-1-1.7-2.3-1.8S2078.1,143.1,2074.4,143.1L2074.4,143.1z M1053,134.8c1-0.1,1.7-0.1,2.4-0.2
			c0.3-0.1,0.9-0.4,0.9-0.5c0-0.6-0.2-1.3-0.5-1.8c-0.7-0.8-1.7-1.3-2.7-1.6c-2.5-0.5-5.1-0.5-7.5,0.1c-0.4,0.1-0.7,0.3-1,0.5
			c0.2,0.3,0.4,0.7,0.7,0.9C1047.7,133.6,1050.2,135.2,1053,134.8L1053,134.8z M2351.9,147.2c-2.4,0.1-4.6,0.1-6.7,0.3
			c-1,0.1-1.3,0.7-1,1.1c0.2,0.3,0.5,0.5,0.9,0.6c4.7,0,9.5-0.1,14.2-0.2c0.3,0,0.6-0.4,0.9-0.6c-0.3-0.2-0.5-0.6-0.8-0.6
			C2356.8,147.6,2354.3,147.4,2351.9,147.2L2351.9,147.2z M719.1,128c-1,0.1-2.8,0.2-4.7,0.4c-0.4,0.1-0.7,0.3-0.9,0.6
			c-0.2,0.3-0.2,0.7-0.2,1c0,0.3,0.1,0.7,0.3,0.9c0.2,0.2,0.7,0.4,0.8,0.3c3.1-1.9,6.5-0.8,9.7-1.3c0.9-0.1,1.3-0.8,1.1-1.3
			c-0.2-0.3-0.5-0.6-0.9-0.6C722.9,128,721.4,128,719.1,128L719.1,128z M374.5,22.9c2-0.1,4.2-0.2,6.4-0.4c0.3,0,0.6-0.4,0.9-0.6
			c-0.5-0.4-0.9-1-1.4-1c-3.6-0.1-7.2-0.2-10.9-0.1c-0.5,0-0.9,0.7-1.4,1c0.3,0.2,0.6,0.6,0.9,0.6C370.8,22.7,372.6,22.8,374.5,22.9
			L374.5,22.9z M340.8,128.2c-0.3-0.2-0.6-0.5-0.9-0.6c-2.5-0.5-5.1-0.6-7.5-0.1c-0.3,0.1-0.7,0.2-0.9,0.4c0.2,0.7,0.5,1.3,0.9,1.9
			c0.5,0.5,1.1,0.8,1.8,0.9c2.1-0.5,4.1-1.2,6.1-1.8C340.5,128.8,340.6,128.4,340.8,128.2L340.8,128.2z M1272.2,18.5
			c-0.2,0,1.6-0.1,3.4-0.3c0.4-0.1,0.7-0.3,1-0.5c-0.3-0.2-0.6-0.5-0.9-0.6c-3.2-0.8-6.4-0.5-9.7-0.4c-0.9,0-1.3,0.7-1,1.1
			c0.2,0.3,0.5,0.5,0.9,0.6C1267.3,18.5,1268.8,18.5,1272.2,18.5z M1254.4,18.6c2.1-0.1,3.9-0.2,5.7-0.4c0.3,0,0.6-0.4,0.9-0.6
			c-0.2-0.2-0.4-0.5-0.6-0.6c-2.7-0.8-5.6-0.7-8.3,0.1c-0.2,0-0.2,0.4-0.3,0.6L1254.4,18.6z M390.5,20.8c-1,0-2,0.1-3,0.2
			c-0.5,0.1-0.9,0.7-1.4,1.1c0.3,0.2,0.6,0.5,1,0.6c2.2,0,4.4,0.1,6.6,0c0.5,0,0.9-0.6,1.4-0.9c-0.3-0.2-0.6-0.5-0.9-0.6
			C393.1,21,392,20.9,390.5,20.8L390.5,20.8z M2256.8,150.7c1,0,2.1,0,3.1-0.1c0.6-0.2,1.2-0.4,1.7-0.8c0-0.3-0.1-0.7-0.4-0.9
			c-0.5-0.9-1.5-1.4-2.5-1.4c-0.3,0.1-0.7,0.3-0.9,0.5c-0.6,0.3-1.3,0.6-1.9,0.9s-1.4,1-1.1,1.2
			C2255.4,150.4,2256.1,150.6,2256.8,150.7z M949.5,131.9c0.9,0.1,1.7,0.1,2.6,0c0.6-0.2,1.2-0.6,1.7-1c-0.6-0.3-1.2-0.9-1.8-0.9
			c-1.5-0.1-2.9,0-4.4,0.1c-0.4,0-0.7,0.2-0.9,0.6c-0.2,0.4,0.2,0.9,1.1,1.1C948.3,131.8,948.9,131.9,949.5,131.9z M653.5,129.4h2.1
			c0.4,0,0.7,0,1.1-0.1c0.5-0.3,1-0.6,1.5-1c-0.3-0.2-0.6-0.5-0.9-0.6c-1.1-0.1-2.2-0.2-3.3-0.2c-1.6,0-3,0.7-2.5,1
			C652.1,129,652.8,129.3,653.5,129.4L653.5,129.4z M1287.1,18.6c1.1,0.1,2.1,0.1,3.2,0c0.7-0.2,1.3-0.4,1.9-0.8
			c-0.5-0.4-1-0.7-1.6-0.9c-1.1-0.1-2.1-0.2-3.2-0.1c-1.4,0-2.8,0.8-2.2,1.1C1285.8,18.2,1286.5,18.4,1287.1,18.6z M1437.2,20.2
			c-0.7,0-1.8,0-2.9,0c-0.3,0-0.7,0.1-1,0.2c-0.3,0.2-0.6,0.4-0.9,0.6c0.3,0.2,0.5,0.6,0.8,0.6c1.4,0.2,2.8,0.5,4.2,0.6
			c1.2,0.1,2.6-0.9,2.1-1.4C1438.9,20.1,1438,19.9,1437.2,20.2z M1744.1,22.8c-0.3,0.2-0.8,0.4-0.8,0.6c0.1,1.4,2.1,2.9,3.8,3
			c0.3,0,0.7-0.2,0.9-0.4c0.2-0.2,0.3-0.5,0.2-0.8C1747.4,23.6,1746.2,22.5,1744.1,22.8z M1783.3,22.8c-0.7,0.1-1.3,0.4-1.9,0.6
			c0.2,0.6,0.4,1.1,0.7,1.7c1.2,1.5,2.2,1.5,3.3,0.1c0.4-0.5,0.6-1.1,0.8-1.7c-0.6-0.2-1.3-0.5-1.9-0.7
			C1784,22.8,1783.7,22.8,1783.3,22.8L1783.3,22.8z M678.3,128.1c-1-0.2-2-0.4-3-0.4c-0.7,0.2-1.3,0.4-1.9,0.8
			c0.5,0.4,1.1,0.7,1.7,1c1,0.3,2.2,0.1,3-0.6C678.3,128.9,678.3,128.6,678.3,128.1L678.3,128.1z M1010.1,132.1
			c-0.4-0.5-0.6-1.3-1.1-1.5c-0.7-0.2-1.4-0.1-1.9,0.3c-0.6,0.3-0.2,1.3,1.1,2.3c0.3,0.3,0.6,0.4,1,0.4
			C1009.8,133.4,1010.2,132.8,1010.1,132.1L1010.1,132.1z M2262.1,35.3c0.4,0,0.7,0,1.1-0.1c0.6-0.3,1.3-0.6,1.9-0.9
			c-0.6-0.4-1.1-0.8-1.7-1.1c-0.3-0.1-0.7-0.2-1.1-0.1c-1.2,0-2.6,1-2,1.4C2260.8,34.8,2261.4,35.1,2262.1,35.3z M1474.9,20
			c-0.8,0.4-1.6,0.8-2.3,1.3c-0.2,0.2,1.6,1.2,2.7,1.2c0.3,0,0.7,0,1-0.1c0.6-0.3,1.1-0.7,1.7-1c-0.5-0.4-1.1-0.8-1.7-1.1
			C1475.8,20.2,1475.3,20.1,1474.9,20z M2238.3,150.5c0.7,0.1,1.4,0.1,2.2,0c0.4-0.1,0.7-0.3,0.9-0.6c0.2-0.4-0.2-0.9-1.1-1.1
			c-0.7-0.1-1.4-0.1-2.1,0c-0.6,0.2-1.2,0.5-1.7,0.9C2237.1,149.9,2237.8,150.2,2238.3,150.5z M1186.9,14.5c-0.3-0.7-1.1-1-1.8-0.7
			c-0.3,0.1-0.7,0.5-0.8,0.7c0,0.7,0.5,1,1.4,1S1187.2,15.1,1186.9,14.5L1186.9,14.5z M1412.4,18.7c-0.6,0.4-0.8,1.1-0.5,1.7
			c0.4,1,1,1,1.4,0.1c0.2-0.5-0.1-1.2-0.3-1.7C1412.8,18.6,1412.6,18.6,1412.4,18.7L1412.4,18.7z M1424,20.9
			c-0.2-0.3-0.5-0.5-0.8-0.7c-0.3-0.1-0.7-0.1-1-0.1c-0.3,0.1-0.6,0.3-0.8,0.6c-0.2,0.5,0.2,0.9,1,1
			C1423.1,21.8,1423.7,21.5,1424,20.9L1424,20.9z M1489.8,20.8c-0.8-0.1-1.3,0.2-1.4,0.8c0,0.2,0.5,0.6,0.7,0.6
			c0.6,0,1.3-0.2,1.8-0.6C1491.2,21.4,1490.6,20.8,1489.8,20.8L1489.8,20.8z M1755,23.5c-0.3-0.6-1.1-0.9-1.8-0.6
			c-0.3,0.1-0.8,0.4-0.8,0.6c0.1,0.6,0.6,1,1.4,0.9S1755.2,24,1755,23.5z M1809.5,24.9c0.6-0.2,1.2-0.5,1.7-0.8
			c-0.5-0.3-1-0.9-1.6-0.9s-1.6,0.5-1.6,0.8c0.1,0.6,0.6,1,1.2,1C1809.3,24.9,1809.4,24.9,1809.5,24.9L1809.5,24.9z M1945.6,25.8
			c0.6,0.3,1.4,0.1,1.7-0.6c0,0,0,0,0,0c0.2-0.5-0.5-0.8-1.3-0.8s-1.3,0.3-1.1,0.9C1944.9,25.5,1945.2,25.7,1945.6,25.8L1945.6,25.8
			z M2036.8,27.8c-0.2-0.3-0.5-0.5-0.8-0.6c-0.3-0.1-0.7-0.1-1.1,0c-0.3,0.1-0.8,0.5-0.8,0.7c0,0.7,0.6,1,1.4,1
			S2036.8,28.4,2036.8,27.8L2036.8,27.8z M2068,30.3c-0.2-0.2-0.4-0.5-0.7-0.6c-0.3-0.1-0.6-0.1-0.9,0c-0.3,0.1-0.6,0.2-0.7,0.5
			c-0.2,0.5,0.2,0.9,1,0.9C2067.1,31.2,2067.7,30.9,2068,30.3L2068,30.3z M403,21.3c-0.3,0-0.7,0.1-1,0.2c-0.2,0.1-0.4,0.4-0.5,0.6
			c0.3,0.2,0.5,0.6,0.8,0.6c0.6,0,1.3-0.2,1.8-0.5C404.4,21.9,403.9,21.3,403,21.3z M444.4,22.1c-0.2-0.3-0.5-0.5-0.8-0.6
			c-0.3-0.1-0.7-0.1-1,0c-0.3,0.1-0.6,0.2-0.8,0.5c-0.2,0.5,0.2,0.9,1.1,0.8C443.5,22.7,444,22.5,444.4,22.1L444.4,22.1z M665,128.5
			c-0.2-0.2-0.5-0.4-0.7-0.6c-0.3-0.1-0.7-0.1-1,0c-0.3,0.1-0.6,0.2-0.8,0.5c-0.3,0.6,0.8,1,2,0.7C664.7,129,664.8,128.7,665,128.5
			L665,128.5z M350.1,129.2c0.3,0.1,0.7,0.1,1,0c0.3-0.1,0.8-0.4,0.8-0.6c0-0.6-0.6-0.9-1.4-0.9s-1.3,0.4-1.1,1
			C349.5,128.9,349.8,129.1,350.1,129.2L350.1,129.2z M275.7,129.7c-0.6-0.3-1.2-0.4-1.8-0.4c-1.1,0.2-1.1,0.9-0.1,1.2
			c0.6,0.1,1.3,0,1.9-0.2C275.7,130.1,275.7,129.9,275.7,129.7L275.7,129.7z M2201.2,147c-0.6-0.2-1.2-0.3-1.9-0.4
			c-0.3,0-0.6,0.3-0.9,0.5c0.2,0.3,0.5,0.7,0.7,0.7c0.6,0,1.3-0.1,1.9-0.2C2201.1,147.6,2201.2,147,2201.2,147L2201.2,147z
			 M2304.2,150.1c-0.3-0.2-0.5-0.5-0.8-0.6c-0.3-0.1-0.7-0.1-1,0c-0.3,0.1-0.7,0.3-0.8,0.5c-0.2,0.5,0.3,0.9,1.1,0.8
			C2303.2,150.7,2303.7,150.4,2304.2,150.1L2304.2,150.1z M2319.7,150.1c-0.4-0.6-1.1-0.9-1.8-0.6c-0.3,0.1-0.8,0.4-0.8,0.6
			c0,0.6,0.6,0.9,1.4,0.9S2319.9,150.6,2319.7,150.1L2319.7,150.1z M2330.8,149.8l-0.5,0.6l0.8,0.1L2330.8,149.8z M2326.3,149.8
			l-0.5,0.6l0.8,0.1L2326.3,149.8z M307.1,129.7l-0.4,0.6l0.7,0.1L307.1,129.7z M266.8,129.4l-0.4,0.5l0.7,0.1L266.8,129.4z
			 M503.8,129.9l0.4-0.5l-0.6-0.1L503.8,129.9z M436.7,129.4l0.4-0.6l-0.7-0.1L436.7,129.4z M392,128.3l-0.4,0.5l0.7,0.1L392,128.3z
			 M374,129.1l0.5-0.6l-0.8-0.1L374,129.1z M251.9,36l-0.4,0.5l0.6,0.1L251.9,36z M437.5,22.6l0.4-0.5l-0.7-0.1L437.5,22.6z
			 M2251.2,33.6l-0.5,0.6l0.8,0.1L2251.2,33.6z M2087.4,30.5l0.7,0.4l0.1-0.6L2087.4,30.5z M2078.9,30.9l0.4-0.6l-0.7-0.1
			L2078.9,30.9z M1828.5,24.7l0.4-0.7l-0.8-0.1L1828.5,24.7z M1484.2,21.1l-0.4,0.5l0.7,0.1L1484.2,21.1z M1367.4,20.4l0.7,0.4
			l0.1-0.7L1367.4,20.4z M931.3,17l0.6,0.4l0.1-0.6L931.3,17z M1240.3,17.8l0.5-0.6L1240,17L1240.3,17.8z M1236,16.8l-0.5,0.5
			l0.8,0.1L1236,16.8z"/>
		<path class="st1" d="M216.1,21.5c-3.1-0.1-7.9-0.4-12.7-0.6c-0.3,0-0.5-0.4-0.7-0.5c0.3-0.3,0.5-0.7,0.8-0.8
			c1.8-0.2,2.9-2.4,5-1.3s3.3-1.2,5.2-1s3.7-0.1,5.4,0.8c0.3,0.2,0.7,0.3,1,0.5c1.5,0.9,2.8,0.5,4.1-0.3c0.3-0.2,0.8-0.5,1-0.4
			c2.5,1.9,5.7,1.3,8.5,2.2c0.3,0.1,0.5,0.4,0.7,0.6c-0.3,0.2-0.6,0.5-1,0.5C228.2,21.3,223,21.4,216.1,21.5L216.1,21.5z"/>
		<path class="st1" d="M1665.8,21.8c-4.4-0.1-8.8-0.3-13.2-0.5c-0.3,0-0.6-0.4-0.9-0.6c0.5-0.3,1.1-0.8,1.6-0.8
			c8.8,0,17.6,0.1,26.4,0.2c0.4,0,0.9,0.6,1.3,0.9c-0.3,0.2-0.6,0.6-0.9,0.6c-4.8,0-9.5,0-14.3-0.1L1665.8,21.8z"/>
		<path class="st1" d="M251,19.5c-3.6,2.3-7.6,2.1-11.6,1.7c-0.4-0.1-0.7-0.2-1-0.4c0.3-0.6,0.6-1.2,1-1.7c0.5-0.6,1.1-1,1.8-1.2
			c2.5-0.7,5.1-0.8,7.6-0.3c1.1,0.2,1.9,1.1,1.9,2.2L251,19.5z"/>
		<path class="st1" d="M149.1,20.8c-1-0.1-2.5-0.2-3.9-0.4c-0.3,0-0.5-0.3-0.8-0.5c0.3-0.2,0.6-0.5,0.9-0.6c3.3-0.4,6.6-0.3,9.8,0.2
			c0.3,0,0.6,0.4,0.8,0.6c-0.3,0.2-0.6,0.5-1,0.5C153.2,20.6,151.3,20.7,149.1,20.8z"/>
		<path class="st1" d="M2231.9,32.9c-0.6-0.1-1.7-0.3-2.7-0.6c-0.3-0.1-0.5-0.3-0.6-0.6c0-0.4,0.2-0.7,0.4-1c2.3-2.5,3.6-2.5,6.3,0
			c0.3,0.2,0.6,0.8,0.5,0.9c-0.3,0.5-0.8,0.9-1.3,1.1C2233.6,32.9,2232.7,32.9,2231.9,32.9L2231.9,32.9z"/>
		<path class="st1" d="M274.7,20.9c-0.3,0.2-0.5,0.5-0.7,0.5c-2.2,0.5-4.3,0.4-5.9-1.4c-0.3-0.5-0.5-1.1-0.4-1.7
			c0-0.2,0.5-0.5,0.9-0.6c2.2-0.5,4.4,0.4,5.7,2.1C274.4,20.2,274.5,20.5,274.7,20.9z"/>
		<path class="st1" d="M121.3,16c-0.7,0-1.5,0-2.2-0.1c-0.5-0.2-0.9-0.5-1.3-0.8c0.3-0.2,0.6-0.3,1-0.4c2.2,0,4.4,0,6.6,0.1
			c0.4,0,0.8,0.5,1.3,0.8c-0.3,0.2-0.6,0.3-1,0.4C124.2,16,122.8,16,121.3,16L121.3,16z"/>
		<path class="st1" d="M250.7,19.9c2.2,0,4.4,0,6.7,0.2c0.5,0,0.9,0.6,1.3,0.9c-0.3,0.2-0.7,0.5-1,0.5c-1.8,0-3.7-0.1-5.5-0.2
			c-0.7-0.1-1.1-0.8-1.2-1.6L250.7,19.9z"/>
		<path class="st1" d="M1605.1,20.2c-0.1,0.2-0.2,0.6-0.3,0.6c-0.6,0.1-1.3,0.1-1.9,0c-0.2,0-0.5-0.5-0.4-0.6
			c0.2-0.3,0.6-0.6,0.8-0.6C1603.9,19.7,1604.5,19.9,1605.1,20.2z"/>
		<path class="st1" d="M2152.8,28.7c0,0.2-0.1,0.5-0.3,0.6c-0.6,0.1-1.2,0.1-1.8,0c-0.1,0-0.4-0.5-0.4-0.6c0.2-0.3,0.4-0.5,0.7-0.6
			C2151.7,27.8,2152.5,28.1,2152.8,28.7L2152.8,28.7z"/>
		<path class="st1" d="M106.8,15.2c-0.5,0.2-0.9,0.6-1.3,0.6c-0.5-0.1-1-0.4-1.4-0.7c0.6-0.2,1.2-0.3,1.8-0.4
			C106.2,14.6,106.5,15,106.8,15.2z"/>
		<path class="st1" d="M2222.2,31.2l0.3,0.7l-0.8-0.1L2222.2,31.2z"/>
		<path class="st1" d="M1703.3,21.4l-0.3-0.6l0.7,0.1L1703.3,21.4z"/>
		<path class="st1" d="M1609.8,20.3l-0.7,0.1l0.1-0.5L1609.8,20.3z"/>
	</g>
</g>
</svg>
