<svg id="Layer_1" data-name="Layer 1" xmlns="http://www.w3.org/2000/svg" xmlns:xlink="http://www.w3.org/1999/xlink" viewBox="0 0 2560 800"><defs><style>.cls-1{fill:none;}.cls-2{clip-path:url(#clip-path);}.cls-3{opacity:0.3;fill:url(#linear-gradient);}.cls-4{opacity:0.4;fill:url(#linear-gradient-2);}.cls-5{opacity:0.5;fill:url(#linear-gradient-3);}.cls-6{opacity:0.55;fill:url(#linear-gradient-4);}.cls-7{opacity:0.6;fill:url(#linear-gradient-5);}.cls-8{opacity:0.65;fill:url(#linear-gradient-6);}.cls-9{opacity:0.7;fill:url(#linear-gradient-7);}</style><clipPath id="clip-path"><rect class="cls-1" x="-71" y="-76.57" width="2702.02" height="941.57"/></clipPath><linearGradient id="linear-gradient" x1="327.33" y1="-193.96" x2="2934.22" y2="-193.96" gradientTransform="matrix(0.83, 0.55, 0.55, -0.83, 43.57, -775.49)" gradientUnits="userSpaceOnUse"><stop offset="0" stop-color="#0071bc"/><stop offset="0" stop-color="#c3e7f7"/><stop offset="1" stop-color="#dcf7f5"/></linearGradient><linearGradient id="linear-gradient-2" x1="439.71" y1="-307.28" x2="2580.44" y2="-307.28" gradientTransform="matrix(0.83, 0.55, 0.55, -0.83, 43.57, -775.49)" gradientUnits="userSpaceOnUse"><stop offset="0" stop-color="#99c6ea"/><stop offset="0.03" stop-color="#9ac6ea"/><stop offset="1" stop-color="#ade1e6"/></linearGradient><linearGradient id="linear-gradient-3" x1="514.92" y1="-388.82" x2="2410.5" y2="-388.82" gradientTransform="matrix(0.83, 0.55, 0.55, -0.83, 43.57, -775.49)" gradientUnits="userSpaceOnUse"><stop offset="0" stop-color="#70a5dc"/><stop offset="0.03" stop-color="#70a5dc"/><stop offset="1" stop-color="#7dcad6"/></linearGradient><linearGradient id="linear-gradient-4" x1="553.77" y1="-446.31" x2="2242.1" y2="-446.31" gradientTransform="matrix(0.83, 0.55, 0.55, -0.83, 43.57, -775.49)" gradientUnits="userSpaceOnUse"><stop offset="0" stop-color="#4684cf"/><stop offset="0.03" stop-color="#4684cf"/><stop offset="1" stop-color="#4eb4c7"/></linearGradient><linearGradient id="linear-gradient-5" x1="666.54" y1="-608.05" x2="1903.57" y2="-608.05" gradientTransform="matrix(0.83, 0.55, 0.55, -0.83, 43.57, -775.49)" gradientUnits="userSpaceOnUse"><stop offset="0" stop-color="#405fab"/><stop offset="0.03" stop-color="#405fac"/><stop offset="1" stop-color="#4887b5"/></linearGradient><linearGradient id="linear-gradient-6" x1="751.9" y1="-769.83" x2="1577.8" y2="-769.83" gradientTransform="matrix(0.83, 0.55, 0.55, -0.83, 43.57, -775.49)" gradientUnits="userSpaceOnUse"><stop offset="0" stop-color="#3b3988"/><stop offset="0.03" stop-color="#3b3a88"/><stop offset="1" stop-color="#435ba4"/></linearGradient><linearGradient id="linear-gradient-7" x1="-3283.1" y1="-7391.52" x2="-3277.15" y2="-7391.52" gradientTransform="matrix(-4.86, 78.07, -78.07, -4.86, -592664.69, 220757.42)" gradientUnits="userSpaceOnUse"><stop offset="0" stop-color="#351464"/><stop offset="1" stop-color="#3d2e92"/></linearGradient></defs><g class="cls-2"><path class="cls-3" d="M2776.92-428.51c-329.38-217.26-1326.39-810.73-1938.65-423C19.24-333,317.86,423.88-70.67,310.22c-233-68.18-284.92,20.13-173.92,220.43,143.25,258.5,946,1344.19,1568,1255.3S2015,1122,2084.82,847.77c116.62-457.89,386.76-921.48,836.29-824.63C3153.44,73.2,3104.87-212.19,2776.92-428.51ZM2539.54-11.25C2243.68,6.84,1943.8,272.51,1909.87,690c-22.31,274.63-88.83,963.5-728.46,931.41S-133.37,732.41-198.75,506.66c-49.33-170.31,68.8-173.72,249.52-158C337.4,373.7,143.87-176.63,709-570,1159-883.26,1888.12-531.64,2206.32-399,2520.07-268.3,2692.32-20.59,2539.54-11.25Z"/><path class="cls-4" d="M2206.32-399C1888.12-531.64,1159-883.26,709-570,143.87-176.63,337.4,373.7,50.77,348.7c-180.72-15.76-298.85-12.35-249.52,158,65.38,225.75,740.53,1082.71,1380.16,1114.79S1887.56,964.67,1909.87,690c33.93-417.53,333.81-683.2,629.67-701.29C2692.32-20.59,2520.07-268.3,2206.32-399ZM1734.93,532.31c30,276.5-38.2,1077.72-695.48,924.65s-1207.12-779-1192.36-974.27c10.47-138.65,191.53-54.6,325.12-95.51C350.05,332.72,266.49-25.2,579.67-288.41,867.16-530,1328.12-416.8,1635.73-369.57c299,45.89,592.14,225.16,522.24,323.93C2015.1,28.89,1694.29,157.38,1734.93,532.31Z"/><path class="cls-5" d="M1734.93,532.31C1694.29,157.38,2015.1,28.89,2158-45.64c69.9-98.77-223.28-278-522.24-323.93C1328.12-416.8,867.16-530,579.67-288.41,266.49-25.2,350.05,332.72,172.21,387.18,38.62,428.09-142.44,344-152.91,482.69c-14.76,195.24,535.08,821.2,1192.36,974.27S1764.9,808.81,1734.93,532.31ZM897.49,1292.46C222.56,1018.41-207.4,621.75-107.08,458.7c66.53-108.12,323.1,79.93,400.72-33C372.33,311.12,377,112.51,450.38-6.84Q619.2-281.38,1065.14-340.1C1349.35-377.84,1765.08-253.21,1776.4-80,1786.86,80.2,1452.68,40,1560,374.58,1648.67,651.17,1572.43,1566.52,897.49,1292.46Z"/><path class="cls-6" d="M1560,374.58C1452.68,40,1786.86,80.2,1776.4-80c-11.32-173.18-427.05-297.81-711.26-260.07Q619.67-281,450.38-6.84c-73.4,119.35-78.05,318-156.74,432.5-77.62,113-334.19-75.08-400.72,33C-207.4,621.75,222.56,1018.41,897.49,1292.46S1648.67,651.17,1560,374.58ZM690.88,1140c-494-195-822.11-499.11-744.19-639.35C-2.44,410,200.84,546.82,275.14,471.72,356.77,389.24,381.37,245.91,449.29,138,537.69-2.38,681.78-90.71,894.11-116.82c199.31-25.05,488.2,59,502,197.11,13.3,133-201.54,140.78-144.78,402.51C1298.09,699.58,1199.08,1339,690.88,1140Z"/><path class="cls-7" d="M1251.34,482.8c-56.76-261.73,158.08-269.51,144.78-402.51-13.81-138.06-302.7-222.16-502-197.11C681.78-90.71,537.69-2.38,449.29,138c-67.92,107.87-92.52,251.2-174.15,333.68C200.84,546.82-2.44,410-53.31,500.67-131.23,640.91,196.91,945,690.88,1140,1199.08,1339,1298.09,699.58,1251.34,482.8ZM484.27,987.58C170.87,872.61-55.42,659.9.46,542.64c35-73.38,188.12,13.71,256.19-24.85,87.45-49.55,128.89-138.6,191.56-234.88C512,184.86,595.46,119.74,723.09,106.45c114.44-11.91,276.78,31.22,292.76,134.15C1032.27,346.38,936.49,402.18,942.7,591,947.5,748,825.32,1112.69,484.27,987.58Z"/><path class="cls-8" d="M942.7,591c-6.21-188.85,89.57-244.65,73.15-350.43-16-102.93-178.32-146.06-292.76-134.15C595.46,119.74,512,184.86,448.21,282.91,385.54,379.19,344.1,468.24,256.65,517.79,188.58,556.35,35.43,469.26.46,542.64c-55.88,117.26,170.41,330,483.81,444.94C825.32,1112.69,947.5,748,942.7,591Zm-665,244.1c-132-37-256.54-155.89-223.43-250.52,19.54-55.84,123.7-14.28,183.93-20.76,95.43-10.27,150.9-51.82,209-136.07,38.64-56.06,61.91-98.56,105-98,29.48.35,66,3.26,83.51,71.19,20.21,78.42,42.81,182.38-1.52,298.33C596.91,796.4,452.39,884.07,277.66,835.13Z"/><path class="cls-9" d="M277.66,835.13c-132-37-256.54-155.89-223.43-250.52,19.54-55.84,123.7-14.28,183.93-20.76,95.43-10.27,150.9-51.82,209-136.07,38.64-56.06,61.91-98.56,105-98,29.48.35,66,3.26,83.51,71.19,20.21,78.42,42.81,182.38-1.52,298.33C596.91,796.4,452.39,884.07,277.66,835.13Z"/></g></svg>